<mxfile host="app.diagrams.net" modified="2024-07-06T17:26:10.411Z" agent="Mozilla/5.0 (Windows NT 10.0; Win64; x64) AppleWebKit/537.36 (KHTML, like Gecko) Chrome/126.0.0.0 Safari/537.36" etag="KBFd1qCLyI7CAFAcyVuU" version="24.3.1" type="device">
  <diagram name="Страница — 1" id="47LlrXcWupT-MbqcyYrR">
    <mxGraphModel dx="1307" dy="1276" grid="1" gridSize="10" guides="1" tooltips="1" connect="1" arrows="1" fold="1" page="1" pageScale="1" pageWidth="827" pageHeight="1169" math="0" shadow="0">
      <root>
        <mxCell id="0" />
        <mxCell id="1" parent="0" />
        <mxCell id="GO54IWE0fFMWwl_vU8sF-13" value="x" style="swimlane;startSize=0;" vertex="1" parent="1">
          <mxGeometry x="10" y="120" width="550" height="870" as="geometry" />
        </mxCell>
        <mxCell id="GO54IWE0fFMWwl_vU8sF-55" value="" style="edgeStyle=orthogonalEdgeStyle;rounded=0;orthogonalLoop=1;jettySize=auto;html=1;entryX=0.5;entryY=0;entryDx=0;entryDy=0;" edge="1" parent="GO54IWE0fFMWwl_vU8sF-13" source="GO54IWE0fFMWwl_vU8sF-3" target="GO54IWE0fFMWwl_vU8sF-10">
          <mxGeometry relative="1" as="geometry" />
        </mxCell>
        <mxCell id="GO54IWE0fFMWwl_vU8sF-3" value="" style="shape=image;html=1;verticalAlign=top;verticalLabelPosition=bottom;labelBackgroundColor=#ffffff;imageAspect=0;aspect=fixed;image=https://cdn2.iconfinder.com/data/icons/essential-web-1-1/50/group-customers-team-contacts-family-128.png" vertex="1" parent="GO54IWE0fFMWwl_vU8sF-13">
          <mxGeometry x="235" y="30" width="80" height="80" as="geometry" />
        </mxCell>
        <mxCell id="GO54IWE0fFMWwl_vU8sF-51" value="" style="edgeStyle=orthogonalEdgeStyle;rounded=0;orthogonalLoop=1;jettySize=auto;html=1;" edge="1" parent="GO54IWE0fFMWwl_vU8sF-13" source="GO54IWE0fFMWwl_vU8sF-10">
          <mxGeometry relative="1" as="geometry">
            <mxPoint x="160" y="422" as="targetPoint" />
          </mxGeometry>
        </mxCell>
        <mxCell id="GO54IWE0fFMWwl_vU8sF-52" style="edgeStyle=orthogonalEdgeStyle;rounded=0;orthogonalLoop=1;jettySize=auto;html=1;exitX=0.5;exitY=1;exitDx=0;exitDy=0;" edge="1" parent="GO54IWE0fFMWwl_vU8sF-13" source="GO54IWE0fFMWwl_vU8sF-10">
          <mxGeometry relative="1" as="geometry">
            <mxPoint x="400" y="420" as="targetPoint" />
          </mxGeometry>
        </mxCell>
        <mxCell id="GO54IWE0fFMWwl_vU8sF-53" style="edgeStyle=orthogonalEdgeStyle;rounded=0;orthogonalLoop=1;jettySize=auto;html=1;exitX=0.5;exitY=1;exitDx=0;exitDy=0;" edge="1" parent="GO54IWE0fFMWwl_vU8sF-13" source="GO54IWE0fFMWwl_vU8sF-10">
          <mxGeometry relative="1" as="geometry">
            <mxPoint x="275" y="420" as="targetPoint" />
          </mxGeometry>
        </mxCell>
        <mxCell id="GO54IWE0fFMWwl_vU8sF-10" value="" style="swimlane;startSize=0;" vertex="1" parent="GO54IWE0fFMWwl_vU8sF-13">
          <mxGeometry x="35" y="210" width="480" height="123.5" as="geometry" />
        </mxCell>
        <mxCell id="GO54IWE0fFMWwl_vU8sF-1" value="" style="image;sketch=0;aspect=fixed;html=1;points=[];align=center;fontSize=12;image=img/lib/mscae/Docker.svg;" vertex="1" parent="GO54IWE0fFMWwl_vU8sF-10">
          <mxGeometry x="22" y="20.580000000000002" width="83.95" height="68.84" as="geometry" />
        </mxCell>
        <mxCell id="GO54IWE0fFMWwl_vU8sF-8" value="" style="shape=image;verticalLabelPosition=bottom;labelBackgroundColor=default;verticalAlign=top;aspect=fixed;imageAspect=0;image=data:image/png,iVBORw0KGgoAAAANSUhEUgAAAfgAAADmCAYAAAA5g5cgAAAAAXNSR0IArs4c6QAAAARnQU1BAACxjwv8YQUAAAAJcEhZcwAAHYcAAB2HAY/l8WUAAFNCSURBVHhe7Z0HfFPVHsd/Wd17UPbee28EB4qi4AQV9x7PjQI+RUUQZCnuvedTnoo+QEUUZYjsvTdldO+mI8k7/9tT6EhukjZJc9P/18+195y2aXJJ7u/8/+c/dOkZOTYwDMMwDBNQ6OVXhmEYhmECCBZ4hmEYhglAWOAZhmEYJgBhgWcYhmGYAIQFnmEYhmECEBZ4hmEYhglAWOAZhmEYJgBhgWcYhmGYAIQFnmEYhmECEBZ4hmEYhglAWOAZhmEYJgBhgWcYhmGYAIQFnmEYhmECEBZ4hmEYhglAWOAZhmEYJgBhgWcYhmGYAIQFnmEYhmECEBZ4hmEYhglAWOAZhmEYJgBhgWcYhmGYAIQFnmEYhmECEBZ4hmEYhglAWOAZhmEYJgBhgWcYhmGYAIQFnmEYhmECEBZ4hmEYhglAWOAZhmEYJgBhgWcYhmGYAESXnpFjk+dewZabjZIv3wayM8VfE+uJoCDxVQddULBYXhgAk0keYt5ogk4cEN/T0TgktGyexvR7QSFAcAh04ij7eWPZ79DvG8S5eFyGqS1mmw2LcgtA76YxkWEI5vcVwzAaxOsCXzzjEVhWL5cjD6LXi8VAmcArhxB/XWw8dAkNgNhE6BMblo3jxTgm/uyigRYKtEigxQMtMBimAiTuj5/OwBfZ+cr41YZxuD46QjlnGIbREt4X+GkPwbL2DznyL3SNmkHfrit07TpD37It9M1aA+ERQvzDhPiT1caWW33jnlPp+EaKO3FdVDheayQWiAzDMBrD+y76vBwU//tuWPfvlDN+DLlilS0AYd2HhUMXEwddUhPo23aCvkM36Jq0hC46Vv4wE2jcfjINP+QUoOIH4vaYCMxOipMjhmEY7eB1gSdsWekonjMF1s1r5YwGofgBRfTjoW/UFLqG4mjZDvqO3aBv2qosJoDRJEXSLf+lsNytcq6cO2MiMSuJF3UMw2gPnwg8YcvORPFcIfIb18iZAIFiASKjoWshxL5zT2Hpd4W+WSvo4pKA4GD5Q4y/QuI+My0Lr2bkypnKPBgXhWcSY+SIYRhGO/hM4BXMhSiafHuZu17cWAMZCu4zDLsQ+gEjoG/cHLrouLJsAcZvsIhjthD3uek5ZRN2eEQI/FMs8AzDaBDfCryCDUWP3gjrnm1yXA+gtMCGTWG46EqYxIEoFgx/4MX0bCHw2XJkn38nxODR+Cg5YhiG0Q51IPBC4gsLUDLrcVjWr5Qz9QijEbqEJOi79YNx9Djo23WR32B8ydSUTLyVmatY8Wo8nxiL++Ii5YhhGEY71InAE7aCfJS8OROW5T/KmXqITg99izbQ9xwIw8ixyrkSzMd4DQqim56ahdczc1Dqwjt/VoNY3BnLAs8wjPaoM4FXKDKj+NVpsPyxOOD35J2iF2LftTeMlwirvnt/TsfzAhbxHvsgOw+TT2fKGee8lBSHm2K40A3DMNqjbgWesJSiaPqjsK77k0VeoguPgPGmB2AYOlJJy2NqD1nu72XmYkqK6+JOvNEoHuOjwuWIYRhGO9S9P9hgRPDUBTAMuUBOMLb8PGX7wnzTSJS8/SJs5kL5HaamfJCViyfdFHeC69AzDKNV/GPDV9xEgya+oASdMRWwWFC66AsU3TIKxa9MA/Lt52oz6rwuLPenU7IqVahzFS5fxDCMVvGfiC5TEEx3Pg7j1bfKCaYcW24WLD8vhPn+q1H609dAaYn8DqMGueU/zMrDjNQsFNdw+ydY6UnAMAyjPfwrZJtE/sb7YbziRiXojKmMLfUUSt58AUVP3QPrgd1ylrEHyfm3OfmYeDpDqVZXU0LYRc8wjEbxPxU1mmC6/TEYL7sWMHA7V3tYt61H0SMTUPrDF0BxkZxlKvJjbj7uO5kuRzUnlBeaDMNoFP+8ewmryXTnEzBedYucYKphKUXJOy8qQm/LSJOTDLE834y7TmbUaM+9KhxkxzCMVvFf84RE/sZ/wTjhXjnB2MN6eB+KHp0grPp1cqZ+81NeAW49kYYSD6VcGlnfGYbRKP7tf9TrYbr2Lphue1ROMPagvfmiaQ+jdOm3YuAZYdMiP+cV4t6T6cizVm36WnN4k4hhGK3i/xuMQuSNV94E092TlP15xgEFeSh5YyZKv/tESa+rb6woMOMGYbkXWD27wDGyi55hGI2ijQgicZM1jrkeptuFJW80ykmmGrQv//58WH78ArDWH5FfW1iE8cdTYfWC98IEFniGYbSJNgReooj8XcKSZ6tKleL35sH2/adyFNhsNhdjnBB3T+25V8XAbzWGYTSKpgSeMF5yDYIenSaeOe+OOkSIXdEnr0H/3QdyIjApE/cUj+65V8RAgZ4s8AzDaBTNCTxZ74YRoxE0cbp49tp7+r7CVlKCoi/fQ+ivX4uBdwSwLtlcVIyrhbinW7z32oLFwXvwDMNoFW0qpLDeDcMvQdCUuUBImJxkqlKanw/zV+8hbNk3YlAqZ7XPFmG5X3k0BZleFHciSIh7EO/BMwyjUTRtAhsGn4/gKXOgCw6VM0xVClNSYVz5E8J+J5HXfg37/cUlGHssBdlecstXJEjPLnqGYbSL5n3c+r5DEfTv+Uode6Y6NqsN6dv3IGT9coT//Lmm8+RPlVpw2dHTyPWBuBORlKLJLnqGYTRKQGxi6/sMLhN5TqGzS6m5CEXZuQjeugrhiz+Ws9qCxP1SIe4pXnbLV6SJkQM5GYbRLgETpWboNwzBz74GBFFoFFOV3GPJylcS+YgfP1By5rXCsZJSXCTE/ZD46ktaB/GCkWEY7RIwAk/oew1C8NyPoYuJkzNMOcU5uSjJy1fOg7b/jfAf34euqFAZ+zNHhKifc/gUjvtY3InmJhZ4hmG0S0AJPKFv0wlBsz6ALiJazjAE7cWbM7LKRwjetV5Y8kLkS/y33WxKqQVjjqYgx0d77lVpzi56hmE0TMAJPKFv1kqI/HtAJIt8RcxZOfKsDNO+LYj475vQ+WHt+myLFVceT8HxOkzva8wxHQzDaJiAFHhC36o9gp97A7rYBDnDkIueAu4qYjq4AxHfvOJXIk8NYygVbldR3ab1NQ9iC14LWK1WZGZmKEdRkf96pBjG1+jSM3ICur+o9eAeFD15J5CbLWfqN7HtWyOsQZVFj06HkmbtkXfN/bAF1W1NASpeQ+K+o6hYztQNJO1H2jVDqL7u0uTS09Px1ZefIj+/LHYiNDQU48Zdh6SGjZQxU8a333yFP37/TTmPi4vHlH8/o1wrhqnvBKwFX46+dQeEvPsjdA0ay5n6DQXbVcNmg+noHkR+9TJ0hXly0vcoe+5+IO5EsFj01KG2K6z4Yzk2bdyAvXt2K8eWzZvwww/fye8y5Zw8eQJms1k5TpxIFl/9P3iUYXxBwAs8oYuMRvArXwuRZ8unpMDxzc+YfBCR374GnbnMYvQlVLzmxhNp2OkH4k5QFbu61PeS4mKsWvmnHJ1lz55dsNTDfv8Mw7hPvRB4QhcZhaAXP4CuSXM5Uz+xONnXNh4/gKjP50JXVCBnvE+pzYbrjqdifaH/7J+GkAUvz+uCLVs2ITu7POvhLNlZWfj992VyxDAM45h6I/CEvkHjssC7hk3lTP3D5kKBG0PKcUR9NkesBrxvKdJfuFaI+xo/EneizEVfdzb86tUr5VkZJpNJngEr/1wBm4ZLDjMM4xvqlcATukbNEDzr/Xor8lYXS72SyEd/OA36PO8FJ+ZbbZggxP2PArOc8R+i9Po6+3BQUN2B/fvlCGjXrgO6dOkmR0BKymnk5dmJpXCTkpJi5ObmIiMjHYUFBUo0urvQQoMi13NyspXHycvLE49bs+wH+vu0j06eC4qILywsqN12hHhuxcXF4rnllL3GwsIavUaCfq9AXCN6nOzsbOVxGcbfCfgoekfY8vNQPPk2Jcq+vtFoQG/oXazSZo1LQs74h2CNSZQznoGK10xITsNqPxR34qrIMLzTuG5SLL/77zf430+LlHO9WGg8MfkpGAxGzJ71/BnxHH3pGFxx5TXKuSNSTp/CRx+9LxZ1FrRo2RrXjLtWmT8t5n/9ZYkStEcCT9DfSUhIwNBzzsWQIcMQHa1eQ4IEbveunfj116U4eGD/mfQ0nU6n/G7Hjp0x4tzz0bpNW+Wx1cjNzVGey+/Lf8PJk8lnxNNoNCrPqV//QRg4aDAaNEhSHr8qr74yX/n9cubMW6AsWH5euhibN288k4VgNJnQqFEjjBhxPgYMHIyQkBBlXg1auGxYv048t2XKwqpU1mWgKP3Wrdvg/AsuQucuXZXnyjD+Rr0VeIXSEpgfuxG2/bvkRP2gQa9uMIW7nkZkjYxFzo2TYI2OlzO1o1hYVvecSscPOb7b53eXpxOi8XC87wslkUU8ZdJjSEtLVcbx8Ql4cc5LyvlzzzyJY8eOKeckdK++/rYQKcf/jn/8vhyfffqhck4u/nHXTlDOv/jsY1UXf2RkFCY/+TSSkhrKmcoUFZnx8vy52LfP+eL4iiuvxiWjx9gVZiI9PQ0vTH9WsYrVMBgMuOPOe9Gnb79qC4aqAn/hRRdj2a+/CKvbsfXfqHFjPP7Ek4iKcvxvnJaaipkvTLMbC1GRlq1a4dHHJiEsLFzOMIx/UO9c9JUwmhD8wrvQte8iJ+oHVjerw+lzMxH16Yviq/qNzhVI3B88leHX4k50CD675+1LSOjIDVxOj5695BmEuA2QZ2ULgeTjx+XIOWT5k7A7E3eCLOr58160684ml/mM55+tJu5hYWGIiIisZsl+/91CIbY/y1FlUoWATn1qslNxJ+jvvvP261i69H9yxjG//rJUVdyJkydO4I3XXnHosifvx9Sn6bmdfc/TIiMiIkJ5rRUXLIcPHcKc2TOVLQCG8ScMkyZNeVae10t0QcFKJzrrvp2wpZyUs4FNaGI8jKHO3ZMV0RWbEbRvC4rb94QtOEzOus+9Qtz/m5MPf3cbTRTWe0Id1KJ//723hfiUdf4jsbz73n8hNLTsesfGxWHFH7+fESXah+83YJDDdL7Dhw9h69bNcnQWsoBHjhylWNcjhbU7aNAQpXgOCVVpadkWALm409LS0KtXn0pi9tuyX7D279VyBLRt1x73/eshXH75Vbho1CUYfu75aNmylfJ3y59nakoKhg0bDkMF8SeX/ry5s5S99nJatGiJG2++FZeNuQIXjLwIvXv3RakQ9uTkswuZQwcPKvMRkZFyBvhn7RqcPnVKjsqga3blVddgzNiyx+rbtz9ChTAfPnRQ/gSUhVREZJTiaq8IPbcXZz6v7N0TJOxjxl6Fm265TXlu551/obguvZGZlam47YkcsUihRVTXbt2VMcP4A/Xbgpfo4hsg6Mm50HfqIWcYe+gzUxD98UwY0k7IGdchy/3+U+mKuNcszMl3hApBS6oDcaf9XkqPK6d1m3ZKZbZyyF3fo0dPOQK2b9uKlCrCpgYJOx3XXX8jrhl/HTp26oJmzZorIn3xJZfi4UcnVnL5b9ywDvn5lQsf0d8s9wC0adNWcU2ToJN4BgUFISY6RtkzHzf++jMLg9TUFOzdt1c5L+fgwQNIPl623UCUP1bPnr3RqFFjZXugY6fOuO32u3DOOSPkT0EpYuPMiqfn8ujESYqrvk3bdmjatJnyWNded4Mi0hWxV2tgq/g3SBGLknJGXzpWCPtYJCaK+4R4jWTBU2wBbRk0rFBV8M8Vy5FX5XoxTF3CAi/RRccheO4n0PfsTxuccjYw0ddCvHR52Yj6aIZbIm8WgjA5JRNfZfu/5U7EG/SIqIMydvv37VMC4srp06evPCuDxHnI0HPkCErA17ZtW+TIOW3EgoGOc8+7oJJVXg59r+KWAAW7VbSeiesm3KAI5wUXjhJiebsieFWhh6bnSZYvQQuCXTu2K+flbN60QZ6VQZZxeESEHJ2FvBhXXj1e/J1gOQMcO3ZUntnnavHzrVq1lqOz0GseOHAIYmJi5QyUyne0JVGRNWtWyTOKR4hUPAD2IHf9vx585My1pOu1ZtVfyjnD+AMs8FUInvEuDL0Hy1Fgoq+QU10TdCXFiPp0Fgyn1W+0BFnr01Oz8HGWdiybRLEAMvp4kWcRYk1R3+WQi3ngwOrvQ7JIK4rqyr/+dLqnXk7/AQOVQ42hw4bLszJh3rNrtxyV0bBhY8U6v/baCWjSpHKqKf087ZWT0FGKW0UoMK8ihyq4ykkg27XvIEfVISEddfHFwoJOUiLpyUWvhj1xL4eCDYcPP1eOKM62BBkZZ7cJaB+94gKiW/ceisXuiJiYmEr/Hnv31r+sHMZ/YYG3Q9DkOTAMOk+OAg9DUO0DyHTmQkR+9ZJSw16NSacz8FZm7XO2fUnDOnDPnzx5EgcPns19J+vdnkUbHh6Oi0aNliMIC/tYJbFUo0PHTsqhBrnsKwbKHT5ySJ5Vh/bY9+/fh58WfY83Xn8Fzz3zbzwx8SE8+vD9mPT4I2dSyqpCCwHasy6HRDs4+KyFbg/aA58xc7Y45igpgmpU3J+3R8sqC4DsrEx5BiWuoWLQH+Xlb9q4zuFBWxYVqbhYYJi6hgXeHmHhMD06HYahF8qJwEGn1yuHJ9AX5CH8v28pRXHs8XRKpmK5a8EtX5GmVSLBfQHtd1e0xPsPHCTPqjNAfK/cLUy/U95JzRkU5U6HGmSNVhTb3JysSs+LoH3wTz/5EE9OfgyzZ03H998vVJ7/8ePHFHEkUXQk7uUUFZ+tXEgWuivQFkX561bD2c9UjfS3VXiHFuTnV9om2bhhPV5/7RWHx1tvvnamBgBBPQQYxl9ggXeAToh80GNC5AedS3cMOat9PCXu5egL85Q9eeOxfXIGsIj75dz0bLwjxL0WdcjqjBYm31rwJBCrVp0N9iIh2ySEhdqg2jsov718f5uggjNVRbgqJHrlhxr0bZ3u7HvEWuFh6U/s27dXSW2jTncUZV8eKU/PmRYGCYmJSpGbYeeMUP1bFZ8v/a6/UFHsa4LewLdUxn/gd6MaQcEImjIPhuGjSBnlZBnFhiCUGOomV7o26LzgftZZShH59cswHd6JEnHjfkmI+8y0bKWJjBbpElw9cMybUKAc9X4vh0Tzd2GVL13yP7vHsl+XVrKQKd1r7do1cmQfElSL+HeiQw3aQy+RqXJESHDIGaFOT0/FvDkzz7ihaZHRtFkzJR3t2Wkv4KUFr2PWi/Mx8YkpuPGmWystQqpiMp797JDF7y9UDOYj2rZrh0tGX+byceNNlaP0GaYuYYF3hrhJBT0+C8aLr4JN3OgOJLbDHdd/hBEPrcZwcVx367f4odsVMBtDxNrf/y19V0vUugsF3kX85xUs3PQ3ZgqB1yoRwpps4+MiNyv/WiHPas5vv/7s1IpPTUlVDjWodG2R+azLOanh2Wp2K1b8XmlhQcF2zz73ghC2MWjcuEklcczMzFR9PhUD18qr9qlBi4A9si9+RZe4p6HtgoolbCmw78qrxrl8ULofw/gLLPAuYrx7Mt6+72OMuWsxVrY5BxnhceKIx6amvTHp8nkYOHEjbrr5S2xoph7hW9d4IsDOETph/V23/AvElmi3oleCQY+GKpanpyHholru5dD+cExsrEtHxQ5zycnJTpu8rF79l3KoUeYJOCvMnTqVVXkkYadtg3KoPOt554+Uo+r89dfvijfAHuQRqLhwoMj1qul4FaGo/KlPTcKcF2dgtjjmz50lv+N5qEwv5buXs3PndqceBtqzp+vj6PUyTF3BAu8CZIgsOBWO1+KHwqK3f/M3m0Kwrnl/3Hzj5/jXuLewt0F7+R3/wuTletmxJWb8e3flVqdaonWQEQYfOmIoNa6g4OyCiNzdc+e94tJBhVvKKS4uEhb2cjmyz6aNG5SjYvW4ilCqXsU8boN4r5OQEzabFaUV3Pu2ipvzVaBAu99/U+9Z373H2Xx7YrVK/viuXTsUj0A5VMjGW9Dio1u3swWvqP/+unVr5ag6u3fvwpNTHsfkSY+KrxOxR4wZxl9ggXcC3cYWnAjCa8kmlDq+p52h1GDCsg4XYsLN3+DjAbcpwu9PBEV47+ZYzsB012uk+xudfbj/TnvtZX3fy95YlPs+fLjr6ZkDBw1BrLDky/npxx9U66FTChgds2fNUCrJlVuc5EqnDnOvv75AfC0rvUqQlR0bG6ecG42mSvnlFDFP0ftVrVbyJLz7zhtnOrg5onPnLpU8EMt/+1WpUFfRWibLmKrKvfPW62fc/RQkOnTo2Vx9bzBoyNAzcQfEwm++xq6dO+SoDHrdGzeuxysvz1O2GLLEAiQjPb3S7zFMXVPva9GrQdHgH5wMwuxjwbC4ub9ebAxWXPnbG3XDoEOrEF5c981V6OYT2byJ1/bhyzkZEon3W1W20LTCHTERPhN5qmO+dMlPZyLR27Vvr0Sfuwq58ykP/tjRssIslKLVvUcPpaQt4agWfUFBPv768w+lCczatavx46LvsGTxT4rIl0PiS+VeqZALQe+d2JjYM6VdSXC3bd2CP1f8rgTfUYGXnxb9gP8u/FrpwlYVKmdb0WqnxQzV1t+yeaMypmuwc8d2IfKLhZhux99/r8J/vv5SiU+ouIjo0qUrrrp6nByVUbUWPVXao3aujqDnt0ZZWJVBaYcVS85S9Tp6/ZSdQCgV6sTP79i+TWk+Q7nvX331meKlqPjcqDAR1fZnGH+BLXgVvkk1YfrR4FolzpDIX37XYpyOTJIzdYch2ARDiHpBEU+QGUQBh9qknRdjFKry27KfzwStkYCOGOF+caWKpWsJe7XVy6Ea73SUQ/ns1JGuvKlKOfRcqDZ91Up1VEVvzNgrK1mpVD9/uRA6WiDs3bv7jKXdIClJNYqeGDx4qHj+w+SoDLLaabGwa+fOanXwG4rnfs+9/5Ij73KREOp+/c927yMOHNivdMdbvPhHpRtdRXr06qWU7mUYf4IF3gGfpZgw5aBnhCo9PB5j7l6CxV0uFY9Xdy48Y3h4pZuzt/iuseOyo/5OyyDfFLkhIay4r0zC27NXHzlyHaofT9ZxOWrR6w89MlE5qC981WIv5VCA2b33P4gxY66QM5W59LKx+NcDj6JBg7OBaBWhXHiKqn9u2sxKvdYbV1ksEPRevOnm2/HgQ48qUfiOoIj7CTfchKnPTFMs/6rEyW0EIjIi0u7PVCQuPv7M54A63MXGnm3oU45eLE6omcw99z2IpAb2++ITTZo2xcOPPoH77nuoUslahvEHdOkZOVo1trzG50Lcpx0OgdnDbc+CLMV4eskzuHrT13Ui81HNmyguem9i1hvRaPQjyPKz2ANX6BpswoqWZ1213oZcv6dOnVS24CkqPioqSn7HPcjSpaIzBFnOobIjHBXE+ezTD5VzYv6C15WvUZFRSiDc8WNHla8WqwVBpiDFZd68eYtKaWKOoOd+5MhhZKSnKedGk0kR12bNmyM6usytT3vSuXm5ymKCBFxtcUmeDOouR6+jvI59kFgsUHc6ekw10aZ9e9peoEePEWLvynWkJjOUdUCvlTrXqUFpeXSt0uVrpddBgX4JCYli4dIERoNvFoUM4y4s8FX4T6oJTx4KQYmXeprqbVb8e+lzuH79pz4X+fjO7RESV3bz9RY/NmqPMYPGy5G2mJwQjcfjz1qdWkdN4BmGCXzYRS+hrJ9lmQbFLe8tcSesOj1mjHoGn/e7SSmc4yso+jgowrspchbxet5rqc3gOmJEmPa8DgzDMI5ggZeszDbijj1hLqXC1RYS+RcunIpfOo6SM97HFBYGvZcDyJYktcUiYcFrlQZ10EWOYRjGW7DAC5ZmGHHbnlCfRn5bhUU9eexcrG2h3p/bU4Q2OBuI5A3IG/FMZ+/mJ3sTKlHbwIcV7BiGYbxNvRf4n4W4P34gBCV1EIlQaArF/ePfwd4G3o86D4727r7rsx3PweZo9WAlf2Z0RChC9L6OivAupgr1DqhjG1Wmo4NhmPpBvQ6yW5YpxP1gCDJK6vbG3ir9ED747AY0yjkpZzwLRf02GtgbOi9ZqHsi4tH7/DtRoMHuegStcpe1aIgeIYGV5kTR9dQgxmKxIjYmBkOHadfDwjCM+9RLgacXvCXPgPE7wzyeCldThu1fgde+uQfBpZ7vlBWaEI+4jm3kyLOcDg5H81EPoVjD7u1IYd3ubdsEQT4MemQYhvE29dJFvyPfgMu3+4+4E3+1HY7Xhj8kRx5EiFZkU+/kdlPO+619xmha3IkmJgNMLO4MwwQY9U7gNwrLfdwO3wbUucqn/W/B7+3dL1eqBlXkMnoh/atUp8cT3c7Hkoba7399rrg+LO8MwwQa9Urg1+cacN/eEORb/fN2bjaGYOolLyA/yHP56qYIKk/r+X/mpzqfi9db95Mj7WISb4UrI71bH4BhGKYuqDcCv7PAgHv2huJksX+/5NTIBrjh5q+UbnSeQHHPe3A9Y9XpMKvDEMxuP0g51zqtTCb0DuUa4gzDBB4BL/Dkij9epMf4naFIreNoeVfZ1bALFnUdW+ttBENQEIKjI+Wo9lh0eixo00+x3n1Zhc+b9A/1fnc9hmGYuiDgBT65SIeLtoYhp1RbgvTM6Bk4mFC7yHdF3D0oxJO7nofHul+klKQNFK6IVO88xjAMo1UCWuB3F+gxZns48izaEySL3oAZFz1TK0s5LClRntWOQoMRN/S7HHPbDfLL4MSa0tRowDCuP88wTIASsHnw+wv1uGNPKA6ZtbuG0dlseHbxUxi/8Us54zqmsFA06N1NjmpOjjEY1/W/EosDIFq+Kg/EReHZRO9212PqNxaLBdnZWTh54oTSCtdsLkRJaUm1nv1UjKpli1bo2q27nKnM5k0bcez4UTkqg3rv9+s3ALEV+uEzTEUCUuCPF+lwy+4w7BMir3UaZZ/AwvfGIq4gXc64RnTLZoioZf77zsgEXDFoHPZGxMuZwIH8IlS9rmeAVa9j6h6r1ar0j/9n3Vrs2L4Np06eUHrPOyMoKAgTH5+C1m0qL6Y3rF+Ht996TXncqrRt2x6PPvaE0jufYaoScAJPgXSXbA1DSokdcadXKlbONov4ahVfaWwRX6k/LI3Fuc4gbv16HXQm8fviXPGQ00Fz9JA0QWMfMnLXz3j123vlyAXEc0zq3RXG0FA54R6U40757Vrt6+4KHYNNWNGyEc5Wa2c8BVmt64W47dq1U4gSfdjOYjAY0bNnb8VSNQRYcx+yylNSTuPdt9/A4cOH5Kx79Os/AHff8y85KmPOizOwZ89uOarOM89OR7PmLeSIYc4SUAJP4j58cwTyK95TxKuz5pfCklGC0swSWKl8HTV/l99zSrmYK0Kvgz7UAEOEAfpoIwzhRuhCvO8loPK1i966GC0yD8sZdUIT4hDXoY3yfN2FAuju73kx3m3ZOyDS4BzxSZNEpcGMliktLa3m6iVIOKm5TF2x4o/l+PSTD+WoOuSOHnvF1bj00jFyJjBY+dcK5XXTAqem1ETgn37mebRo0VKOGOYsASPwJ4t0uH5XGA6a9YplbhViXppSBEuepcxC98arFPdQnVEPXZAOhkgh+NEm6KOE6Bs9L4wt0w5h0bsXI6i0WM44JqFLBwTHRsuR65ArftyAq7A1OimggumqQl3jtrZujHgNWpAk6L8vX4Yli3+C2WymmbJvVIDEvVGjxrjzrvsQn5AgZ33Hu++8ibV/r5Yj+3Tv0RMPPvSYHGmfZb/+jG+/+UpZdNUGFnjGk9TdMt+DkOV+//5QHMjXoeRYIcxbcmDek4dSYbXbir0k7gQ9tHh8q1hElJwsgnl3Hgo3ZMO8IxfFhwthyS456y2oJYcTWmFFmxFy5BjqGBcUFSFHrlGsN+D5jsPQ97w7sCXAxZ24KyYScRp1D5Pr9z9ff4HMzAwUFhaIo7DakZ+fj/379+GN1xfY3bf1Njab879pz/OgVfbu3Y3vv/u21uJO1KXnhQk8NP9uyirV4dYdIfh7XykKN2aj+JgZ1gKL90TdCbSPb8kuRckJsxD6POSvz0bRvnxle6C2i42ZF01FbrB6X/eols3cagtLgn7hkAmY2nkEco2BH3BGneOeSoj2dRiFx/h7zSqXhST5RDJysrPliPEGxcVFePvN16U3pXaEh4dj9KVj5Yhhao+mBZ7y26/aEIx/Vheg+GABbCV+aBWU2lCaWoyiXXkoEGJv3pmHUrEAsIl5dzkR3RiLu1wqR9XRGQ0IT3LNJUu57XPaDVKs9hWJ9SdAZ1BYMAwajS0oEJb56lV/yZFzSktKlH7wjPfYv3+/kganjk4R727dumP8dTfgwYcfwyOPPVHpeHTiZDw/40U0btxE/g7D1B7NCjxVprv8Nz22rsmD1VzzoBZfQ277op25iiufRN9a6N5zXzDiERQb7FvawZGR0Lng4tsdmYDOF9yHSV3PVyLm6wuhQtjnJ2k3Z3jjpvWKC94dFv9vkZJ7zXiHTz56X5455pzhIzBn3itC2Cdi5MiL0L17T3Tp0q3S0blzF0RFuR83wzBqaPLunl4EjFtkxebtRXBhu8//EMY7ufLJbV+4KQcFm4TYHywUYu/8xWSEx+PdIffI0VlI2GPbt5Ij+xwIj8WVA69B55H34HB4dMDUk3eVm2Ii0Mio3dSs1atWyjPXoYjuQ4dqlrJVU6KjnRcPCgvTfongtLRU5VDj3PMuwA033qLkuFP2AMP4Es0JfEEJcP8SC9Yf1o7V7gybEPbSU2YUbs1RAvVK04pVFy7f9BqPoird5oKjo6A3meSoMtmmYMVaH3Du7fiucUexvqh/N5pEgwH3xqrHL/gzWVlZNc6t/v23X3waknLO8PPQvEULYZFGISIystIRKY4OHTvhsssulz+tXU6fPiXP7BMcEoKLL7mUA+eYOkNTaXIk7nf+z4KfD2rmKdcYyq83NQyGMV6s/IMr3yCohO0jy2fjsrUfwizWaLE2C9p0ao2QKqlx2aYQfNW0C57uPAKpwfW7qcrUxBg8FKddgf/yi0/x27Jf5Mg9jEYTZr4416clTSlK3tF2QmhoaEBYs7/8vETJaHDEkKHDcOttd8lRzeE0OaamaGZpWSos2ruF5V4fxJ2wma1Kql0B7dXvya+Uy28sysUfKcfxTEQrzIxogSciW+OjwiAqyqdAAXQ/NGqP5qMexD29Lqn34h5n0OPuWM+1zfU1JJZbt2ySo+qQWCYkOm4sVFpaopQ79SX0nMgNb+8IFFf16VPqFnzXrj3kGcPUDZoQeNKtGSutWLq/foh7VUrTi5UIfHLhW3NK0OXHZxGRul9+t4wfxc+8fNKMD5v3QMeR9+HKgeOQY+L61PQG/65ZA4RoWFSOHD6EjIwMOapOk6bNcMutd6gK56qVfyo58XWRFx+o5OblyjP7REVz0BxTt2hC4H8+YMNrG6w+3Uf0O8SLt+ZbEL5mDaJO7pKTlfklX487e16Co2HRAV1m1h3ujItE52Dt5veT9f7DD9+plj/t1q0HWrRoBZODGAwiOfm4sodf0318pjrOGsiEhHArYqZu8XuB35dhwwM/W8SNTk7UcyIKjsmz6uhLxQ1Hk2kF3qFbSBCeT4jRzj6UHbKyMrF92xY5qg6J+jnnjFD2tfv06Sdnq0OW+x/LlykH4ynUb0qBshXBaBe/vvcVC6PlqT+syKx9kaiAoSA0SZ5Vx2I0wVaP8trVoKj5dxvFa7aoTTnbtm5RLetKEekJiQ2U82vGX6ekYzli1+6dyhFIZWIZhnGMX6vBa+us+O0w34wUdOI6hKcjbfQG5DS13+Q0t0MXBMXGuFTsJpChV/9Cgxi0C3LsstYCZHUvWfKTHNln0OBhwlIsO6dCKbQf74jMjAzloFauDMMEPn6rBBQ0/sYGdjcrBOdCf/5LMFw6DbpmW7Dp9nAURVf+p0vvMwB7734IoZFRiE5KQnhsLPSG+in0zyTG4IqocDnSLocOHUBqSoocVYf2eDt06CBHZfTtN0CeOWbp0v9xsB3jFtT/4MiRw0onw88/+wivv/oSXp4/WzneeuNVpZPe32tW4/Tp0/I3GH/AL/PgKSVu3H8t+PNoPbfeo05D320JdE03A4YqAT0phQjfXQBTMWCOMEDX798wRnWW35TYbEo98qL8fBQX2m8tGkiQIXtfXCSmJsTAGAD7n19/9Tl+/WWpHFXnwosuxrjx18tRGUVmM6ZMnoicHMdNZmjffu78V5X66N7i4IH9Soe1wipNWGhRctVV49CyVWs54zr/Xfgf7Nm9C9YKWwx68e/csXMXXH75VXb3vK0WC44ePYKdO3cgOfkYsrOzUVJcXOkx6Lfi4uOVnPXg4LLMEypi8/mnHytlfh19ak6fOomCggI5qk6TJk0RJB+vNpw8cUK13LA38uBpAbhnzy6sWbVSLDQPIjU1xeUmR8HBIWjYqBHatm2HYeeMQFMVr5KrHD58EN//dyHyC/LlTBlJSQ1x3fU3evS9TAGtPy76Drt37YRFLoTpPUIesgk33uzRehK0Xaa8r/fsrrR1ZtAblGtHtRRqg18K/MaTNlz8tUVcXDlR3wgqgE4Iu77V38p5NajM7YFM5Ws5pujeiGj3hBxVxyI+nMWFhcph9UBbS3+DfBX3xApxF9a7KQDEnbqTTZn0GHJzc+RMdZ6d9oLdm+e7b7+BtWvXyJF9xl87ASMvHCVHnsXZc2/evAUm/3sqgkyuZzfs37cPs1+cbtfzQMJ+/wMPo2fP3nIG4m/n4o/ff1O2I06cSHYp7uDa627ABSMvUn7231MmIkXFe+JPeFLgScTXr/8Hv/68VCyMDrt03dSgxWTnLl2VxWi7dh1qXNVv1gvTlBbI9ujarTsefuRxOao9f/35Bz520GOgbdv2mPjEFBiN9rdJ3eWPP35TFpL2rjOlWc4TC/HaBGv6nQ83Xxiqk5Zb66e4G4uga70GhrFPQ99huX1xF9hyhdleQdyJkpxtsBY5viEZxBsyNDISUYmJivveGBQcMFG+ZMVdExOJ5xvEBoS4E1s2b1IVdyoYQ9aLPQYMHCzPHLN48Y9uN65xFRIJtedOwlla4t4i8+jRQw63FejmuHfvHjkCNm3agGnPPoUfvl+opAe6KlL0swSlv2lF3D3JyZMn8OqC+XjvnTdx5MihWos7QdeS3svz5sxSPFJ5eXnyO+6h9kzIW6SWRuoO9B77+eclclSdgwf3i+uULEe1Z+P69Y6vsweuv98J/MpjNmw6XfsXpikogC4yBfpLpkM/8DOx7FVPG7Bm2Lkx20qQt38enZSNHUCiHhQaisiEeEQ3bIiwqChNB+XR67mtQRzeSIqVM4HBqlV/yjP7jBt/ncO8946dOisuZzVyc3IUCy1QoJskHbQt8PqrLyMz03FhIKYydN2OHT2qLIp27NgmZz0LCSeVWp723FM1+rfp1t1xVcCCgkLsVSnl6w7Jx4/jlFjoOIJex/ZtnrlGdN1p28gRCQmJtTbC/OrObhXaNHVFPTPd9RboB38Ew+gZ0EU4f+NbhfVuK7K/WrWYk2EpOCJHzqE3T3BEBGKSkpTAvBBh4esN2um2ZhQCd3OTJEyL0X5AXUXycnMVq8QRZL337TdQjqpDqXIjRpwvR46h3vIOrQcN8svSJVj8vx/liHEVqnI4/fmpTgv3eIKM9HTMeP4ZHD/uWNjs0a9vfxX3vg1Ll/7kkffywYMH5JljqC6FJ/7W7t27lJgQR/RWqWvhKn4l8EsO2HAgM3BuOOrYoGu+EfrLnoGuxXrxL+Gay9KWXSTP7GArRf7B12CzurnHLoSehF1x4TdogMjEREXsjSo51XWJ3mhQthmuaZSI58OCEGgFecl9TvvYjmjWrIXTKmm0L+ls9b9+3T9KIZ1A4Mjhg1i48CuHbnxXoK0egvZX60sVus2bNyr7ze66uKmwUlxcHGLFoVZB0R7UGXHBy3Pdeu9RrYemzZrLUXUO7D+g+plxlXUupJCWBR2qtwl2haUqKbC0SB88pHYBdoRfCfy7m+qJ9R6Srbji9UM/gC7cjRtsiQU2ClJQwWI+jtIcx5XPnEGiQJYxiX1EfLwi+GHR0Ypbv67bXipxBOK5RCUk4uLIMMwJMSIsMLbcz0ACtWH9P3JUHfo3OP+CC+XIMRTB3bp1GzmyT1FREbZu2SxH2mbvnj3i2tXOOOjQqSwLha7xLbfeiZiYWEW86PNg73C2gKKFgr3fc/eorZvWEceOHsEnH33gkjVKrX6pt/1d99yPmbPmYc7cBZgxcw5eEMdLC97AM8/NwI033apUU3Tl+VI9hpfmzVbNQqiIQRggnTt3kaPqFBUXIaOW2zKUOXFg/9lYDkcUFxeLxfHfclQzLJZSHD92VI6q06hRY6Xdcm3xmyj69SdtGPsfCxx4nwMDnbDaE/dDN0QIe6jjICRHWE7nw5bhfJWqD26AqM6zoDN4voscReOXFBaWpRqJc5sQJO+5ecmzoIdB3OSCw8NhIo+CuHmMMurxSqje/wJIPAAFOk19arLDa9pALLimvzDHpcUWpZTNnTNT9d+nTZt2mPzk0x4VEQqkevjBe+WoOiEhoZg992Vlq8FVlv/2C774/FM5ch0S6Li4eCQkJCA6Jkb8zXC71655i5YYMGCQW9eBrFCqNOiIqc9OVzIGaos32sVSIOQ88d7Yt2+vnLEPpfmdM2wErrjqmjMphM7IycnBO2+9pgQ+OvOojL50DC6/4mqXrvu2bVuw4KW5clSdSy+7HGOvuEpJaasJv/66FF9/+bkcqdOmbTtMeXKqHLkPxSFQpomj1MOLLh6Na665Vo5qjt/cI+ettQa2uOtLoeu6GPrzF9RI3AlbTrE8U4ei6YvS/pAjz0JWNLnvI4V1T/v2dESKmyft5ZNLnwL2yj6sNfiYid+j36W/QY8X1SBRefwIcgPSzUV873yjDq8GqLgT//nqc1VB7tKlu8uelGZCXJzdlI8dOyIsCff2Q7UAXSNKz5o1+yXF0nzksUm47fa7lVQ4qh1Q9Rg4cLBLIhMoUMCbM3EnD8RDDz2Ga6+/wWVxJ8jyfOzxKbj4ksucXtOfly7GIRf2vQlKUaNFmiMova1EWPI1Zfu2rfLMOWR91yZyf82alap1Bfr27S/Paodf3CfN4nVuPuUXjgTvoFSiWwB9t8VCpGr2Om10kagCkIuYT3wLa0mWHHkPEnQSdorGJ6EvD9iLbpiEqMQGyhwJdHhMNELFz4QI4aYjNFIc0VHKXjr9DG0FRCeJo2HDsm0B8bMk9BXpoddhfoihxit0f0dpLLPdcYQuWaPDho+QI+fQPilF1KtB7sbly3+Vo8CA9i8fEMJEudHR3LLVLuQRUYNc4o9PehLU66AmkLBfLqxpsqrVIJGjmBNXoPezmvBlZ2chPT1djtyD9u8PH3K90yJtb61cqZ7p4gh6zX+vcVyngt6zLVu2kqPa4RcC/989VqS5thWjOXQNd8MwajZ0iQflTA0QawLLCffyR22WAhQc/VCOfIj4YJPokwVlMBkV8TeFhCAoLLxM2IVwK0IfKY7wCGVvn36GxFyvF+LtYMXfV4j7u2EGhAewkbVrl3ojGNpTJ6vcVehaUpUvulmrQRW7vLfN4lvI/T/5yano1s11T0d9g1IwMzLU96sn3HiLeL+1laOaQe+/iy+5FJ06Od47J3Zs344jLqZsqqXLEWrZJ2ps3rQB+fnu3WNXi+toq0H3TlrInzzhOJe+X/+BDu+D7lLnnwDqGDf/7wDs9U777W1XQj/sXSC8dsEfNrLca7B/UZK1ESU52+VIu/Qx6PC2EPe4ABZ3SlH67def5cg+g4ee47b3Ij4+QQnYUSM9PQ1bt2ySI+1Cgn7Hnfd4ZN87UCHrccn/1FPKmjVrrrQg9oTIkDflhptuUX2skpJi/LXCtS1Fqtyo1jFx3T81a6T0p8rfd7RAPpGcLCx517ZNK+Ks+FL37j3lWe2pc4FPKwSO58pBoKC3QNd1KfT9vnJatMYVbHnuv4kUbCXIP/iKsOZr/xzqCnLLfxZqQHQAiztx/PhRpZmHI5xFEavRs1cfeWYfCoRauPCbWqWY+QOJDRoo6YGMY8hKpQWdGpdcOlaeeYbExAZKXXo1KCDPFS9SdHSMsgBxxP79e5HnpiVOnDplv7hNTEwMhg6zvy1Gbv1jbsav0Guk9FRHmExBqh0h3aXOBX7ZIas7W8v+j86qCLu+20+KFV9rxEPY0mteUtRWmoPC465FhvobnYS4fyUsd1OAizuxcYNKyUpB374DEFPDJhdUc95ZrjJ1ratpGVF/gCzEq64e77Ea4YHKsWNHVQvaUCOVHj08Z0ESimflrntVt0xSTp9WLW9cDv07j7p4tBxVh0R37+5dcuQaZFFT5L89aHuhZ89eclQZ+rz+9ON3Li1MyqHy0Grtmtt36ODRuJE6FXhqCTtjVQCpO1WlG/QJdG1Wy4naYyssFYZ47a5RUeoylOTulCNt0EGI+3uh+noh7tQBbtXKv+TIPheMvLDGwYXUaatL125yZB9yk25Yv06OtEdoaFilZjOMfag7nBoUlKnmAq8plKqoltddWlqCfRX6CajRoSM9R8dR/RTL4g5ff+3YAOrTtx9atGzlMItg544dyFGpRlcVKg+ttsA677wL5JlnqFOB351mQ3qgBNeRuFN+e8v1csIzKI1lao0NBYfe9ElUvSdoKsT9/VADksTX+sDGjetV27tSm8qGTvbRnTF48FB55phFP/xXiarXIrSI4aA65+x1khqn5v6uDWR5k8irQaVbXYHEVm2xULX1qhq0ZbFnl/2/S16v1m3aIjIyEr1695WzlaEgu+QTZU2KXGGHSpYMbcPRYsKT1OkngorbBAQk7gM+h64pFb3w4GsSb1JrTfffq2AtToU5+WvxmP7tMWkuRH1hmAEN69G9evVqdatqyLBhSopQbSALnhYKdDiCXKTUO12L1JfSsrWBAuyogpwaCYmJ8szzNGysvkg9dNC1TCMSwgEDB8lRdahPv6u17k+cOOEwn71b955C3KOUxQktkOmrPTao7KlXhYr1OIIWQBERkXLkGersNkoLrG93B4DA60uh7/k9dK3WembPvQK2gtKyNAMPUZT2uziWy5H/0V6I+9dC3OPrh+GuQPveajc2slYuG3OlHNWc4OAQJYfeWR792r89t73kS9h6d05BQb74v/o9irIuvIUz7wAtMF21vKlcs8FgP96CBHvlXyvkSB1KdXPE8BHnnRH1lq1aOdy6+Ft8ZlxJsUtNTVEtKjV02DkejyGps09FeoENGwOguA3tt+s6ekc0axw9r0Lh8S+UHHl/I0l8kL4I0yOxHok78dOP38NsdhxE2aRJMwQ5CZBzld69+iiHGn+vWY2CfBICJtAoLnbeLc6d8sHu4mzxYLFaXM7kIE9UQqLjx3NlP58WPJs3bZSj6lRckFCMh6MaFFT0Ri0Dphy1RjbklbjwokvkyHPUmcCvPG6j3inapvEO6HsvlAPPYyvwfPtGEvecnZNgs/rPXivdUr4S4h7jwAUWqJClsWmjeswGWRGegrpx0aF2oy0sLMCmTRvkiAkkrE5Kq5LIOLKKPUF0lOMys4TV4l5fiw4dHFdpTEtPc9pd7sjhw8jNtZ+j3a5de0RERMhRWQzBZSpV+TZvdP6ZUdt/p1RCZ5kuNaHOBH7FUY1b72FZMPT/UnwqHNcTrg22YovDvu+1xVqUivwDLwmR9/wCwl0SxQfnmzADmtWTgLqKnDxxQmmd6Qjakxs0eIgc1Z6yG7gBV149Ts7YZ9Uq9Yh+Rps4q51O7mGDF7c6goLJxe34c+6OuBODhwxxuC9OXqhdO3fIkX2oGZM9FDEfe0W1bZ+yOBb7wX3btm+FRcX7QMGrp06elKPqtBULCm9QJwJP/4w7at9Ot06hoDqEea+XthI978U1UEn2JphPLBR/o+7cKAnis/mxsNw7GOqfuNPN7H+LF6nedDt16eKVvWUqmKPWPITKfaakpsgREyhYreqfdXqvUZlpb6E8vspH3Ub/uSHyLVu2Vm0+88vPix0+Hn3u1q237zKncsft2nWQo8pQJT17ZKSn44BKhsLevbsc5vnTgmLI0HPkyLPUicBT3fm9GV5UL2/TYgN0jdwrpuAutmzvu9DNp35QcuTrAhL3b4XlToF19RFqjLFepawmfeiHOaigVVsoUrdpU8cBTxRt/evPS+SICRSsTsST3nN6NQX2M8jj0K2b49r0hw4dUgrL2IMK/pw+dUqOKtOkSROHwW4DBtn3qNGCYc2aVXJUGVpkLP9tmcP4AspcoD4T3qBOBH7FUSu8ED/mG0yFMAz4TJx4cYEiHtpW6gvL2qY0pCnOdNzZyBtQwhdVqKN89/rK7l27VK0Vyuum3vDkLvf0QWl57TrYt1DK2blD+z0MmMrQ9owaJFIU6KYlOqmUb7ZYSh3usasFvPUfOEhZ7NijT5++DlMyDzpoe0vXVa0lLnkinP3b1JQ6EfhfD2jXete1Fas0o3dXJ4q4W313jQoOv43SXNeqSNWWaOjwuRD3lvVY3EnYly75SY7sQ+lzH3/4Hj58/x2vHEsXq//9lJTTwgJyrU83ow2cbfeQEFm9eN8hz5Daopa8B46E1REdOnRy+Dv0t1Y7aOm6a4f9/Xlyz6t5zuj71JfeHimnTyE1tfrec3Z2JgoKHGcu9ezlvQqMdSLwe723de1dgvPKerp7GVuWd/ffq0LNaPL2z0RJtuMiDJ6AYkTfCtOjez3cc6/I4UMHXS7EUVfQzfGbr79UvSEz2sKZwJMLuSbtT13FWa64Tkd79O7dG6hue1eVMswrV61QFhYVocBWR81lWrRs6TSavVdv+6mmVIL2rz+rd6XbtHGjsniyB+XWd6xhz31XqBOBP5WnzZuGLlFYNMYiOfIS4tLYsr38N+xAIp9/YJ4Qecd5obUhXBwfCsu9Xz0Xd0IraWiHxELE3R7ZjP/irIgKCbw3SxVnZ6nXbNcb3Bd4onfffvKsOtlZOUhLq2xV//Xn7w5fZ+fOXeWZYzp26uLwWq775+9KYk7X9Ldlv8hRdajnPnXI8xY+F3gKsKNDi+ha+ODGTLmgPtl/rw7lxuftn4fitBU0kLO1J1Z8aN8S4j6QxV25sax20vDDXyCLxNX64Iz/Q9UMnUHBn97i1Gn7VnM5JJo1Efj27TvKM3vYKr2HySO13kFTJaOw3Ac5CKKrSFJSEtp3sP83MzMzKgX20eKCKtg5wpNpsPbwucB/u1sImDzXHPHOqxXVFhvtgdXlBbJZkH/4LRQeo0DC2kNvsFdD9RjE4q6wc8c2ZGVpZ4/qu/9+q9r9itEOVKVOr1cP5kpLU+8VXxuSjyfLM/tQsZeaCDwVblKzgqk9a/lWU4lYYKdXsejLof38uHj1hjjlDBg4WJ5VhrYDKha0UStNS3i6uUxVfC7wyw9rVN6DCqAL9n4JT5vZO4Vz3MMGc8oS5O6ZJvS+5r3o6aP6YShb7hX543f/7QVgD2rcceTIITlitAyJZ7Nm9vO4yzkl/r29Bb2X1CCBrQlk+Z8z/Fw5qs7+ffvOlF9etXqlUlrWHu70wVdLa/vmP1+ivObAege59gR1qWtUyy6RzvCpwFPflF1pGhV4K10qHwhVoT8IPGFDae5O5Ox4HMWZjt+kjqAwlQUhBgwxsriXU1hQ4DQyndrCUjENXx7OOrFtcqEMJ6MNOndR32M+uH+fPPMsJSXFTt3/tLddU4YOG6642O1BveZ37Nyu7I3/qlL8hnrhu0pSUkM0adJUjipDHrqUlBQlRW/7tq1ytjoXj77Ma+lx5ejSM3J8priZZqDrO6Uo8hcNcxP9qJnQxbne+7cmWA5l+4kVXxEdghKGI7TRldAHN5BzjqEaabODDbgkSOeLJZFm+OG7hfjxx+/lqDrUEnb23AW1bg3rLt9/vxA/LXL8vCKEpTHjhdkIDz9bm1sNSvF7+MF75ag6lGo0e+7LbjU2Wf7bL/ji80/lqDotWrTE0888L0e+YcHLc7Ftq+PMk6nPTkdzBw1K3GHOizOUHueOoNdNr98VKHBy5oznlOAve5iCgjB9xose7ypH0eUff/S+HFUnPCICc8R731HHNmeQa/zJKROVinL2GDJkGMZecTWemPiQnKkM7as/N30WjG7U4qdYmg/ef1uOKnPb7Xcpn5tXXp4nZypDGQ0zX5wvrrNrWwI1xacWfE6RthvM2HaPlGdeQqwsbX55gWwoTvsD2dsfQWHyV7AWiw+RgyA8m7UIt1iOYzSLeyXIevjLSQtLEgNfizvRu3df1b3PPGGJbFURMkY7NGzYECaTYxGlPeplvyyVI89ALvFv/vOVHNmnebPmNRZ3gtz0bVq3laPqUBGaAwcceycuGDnKLXEnOnXuDIODaHpqV7tTpRY+lYqu2MzGW/hU4E/kKRqmWYzHe+OcUvvBFR7BIi4OHf6KzQLzye+Rve0B5OycorjubRVq2Zfm7UHOjkmYv2UK9hZ419OhNfLycpGTo54mNPzc8+WZbyFXY2MH7sZytNonnqkMRdI3b67el/1PIU6OLPyasG3bFtmL3jGdujjOZXeVC0dd4jDXn6pC/vC9486fXWrw96llbUQ4JQBX58CB/VjroHQt0b1Hr1otaFzFpwK/PYXaCWgTo7hSr11owhdNJuDB8FEweOHS2Uq8V2TCowjr3VJ4ROlIl7XxRnHcIo6bkLv7GViLTqHYWoJh/zyGpWnqrVDrE59/9rHqTTMxMRG9nPRq9xa0D3jttderWvEH9u9TUoAYbUMCeP2Em1SL3hSZzZgze2a1AjE1ITn5OD756AM5sg9FwA/1QLOVli1bqTafcdTNjQrbxMXFyZHr0Odm6FD7Ve/IY+eoTC5dewoKrEnGgLv4VOD/TtamvAcZgHkX6HFVRx1MOiOejLwcD0SMgsed0BaNCHxFhNjbrGZxVC4cUSos+9t3zMc3p+2XiqxPUOWsLZs3yZF9unbv4ZV+0K7SqnVb1T1xyu1VK9jBaIdmzVugVavWcmSf/fv2CGF+v1aFb9JSU/HhB+86td6HDB3msA2rO5Bg0jaXu1wkLH9HAXrOuODCi5wGqVaFXmvbtu3kyLv4TOApsI4seK1BJdMXXKjHdV3OXioS9skRY/CAsOQ9KvFaseBdxCxE/6Hdb+Lzk9pKDfM0dLN0VKqSIEtg2LDhclQ30J6gsyhiZ4sURjuMvmysqhVPkebUlOijD95TFqjuQuWYX1kwT/mqBlnc519woRzVnr59+8sz16C9++Ejar41RqluCQmJcuQajRo38Xr0fDk+E/i8krI9eC1hElfnrYv1uKaTXhH6ipDIkyX/SPhoj7nrlSI3AUaRtQQP73kLn51cptntmdpAwr7MieXbtl17YXm4FgXtLcj6uWbcdao3/dOnT+PECfViJYw26N69p5Ja5ox//lmDZ6dOUboQ5ufnqy5US0tKlEI5X37xCV6Y8ZxL75Vbbr3To6Vau3Tt5tbeNmULxMbGylHNaN9RrZJedXr36SvPvI/PBD7b7Ecp3i5Agj7jXD2u7Oj4EpHmPx55GZ6IuExcSA/Y8v4cYFcLrDYrHtvzLhanuZ9Pr3VOnjih7F+rMWLEefKsbiFLpGkzxwFYVLzjp0XfOcwjZrTFlVeNQ6NGTeTIMZT2SB0IJz76AKY99xT+858vsWnTRiWQbP++vUoAJln6UyZPxL+nTMRvy351KUhv4KChqo1iakJkZJST0rWV6d6zlzyrOdR9ztXtNfKU9e8/SI68j88EPq1QOzcFkuoZI/S4rYfzy0PCTvvx06PGw1jbyxnAN07ak79l21x8mFy/9nHXrftbVRDJYnZU17ouoH7XatCN3VHwEKMtKE3rXw88rIiOK1DJ4uTjx/HL0sV4/dWXlHz6WTOfx7vvvImVK1coQZhqFn5FuvXoiVtvu8PjgWb0eF27dZcjdchNPtiF2vPOoGJRSQ0byZE6TZs2R7iDyHtv4DOBP6kh9/xTQ/W4o5frl4Zc9LeHnYtnI69BkM69XMpKBLhhRF0IJu17D/MPL6wX7noS9r+dpJeRm5TSbfwFskaCVYKG6Ca/a5fj/F5GWyQ1bIinpk5DTEzt3NTu0KdvP9x77wNe24d2dcFMVSObCHGuLbSo6N69hxyp0627a4sPT+E7gc/Vxi194kA9HuhXM4f7neHn4fnI8QjW1TAauh6onsVmxcxDXwmR/1a83MB+wZT/m67SvIOs95EXjvK4FVMboqKj0aO7ek3uJYt/Yjd9AEH10J95bjo6derq1fciBbTR+/3Ou+7zag5448ZNFKvaGe3bdVCNOXGHnj17yzN1erj4c57CZwJ/IMu/bwiU5z5xgB6TBlcPqHOHW8LOwZyoCTULvPOf+7xXIUt+5qGvMU9Y8hruLeiUgwfU686T1eTpkqCeYNDgofLMPsePHUVubo4c2UdNKPTiA+aukBgM6otmT92o3UHn5G/qdZ55Ts46wBk9YAnT3vVjj0/ChBtu8niFNfq3pvf5xCeexPhrJyhC703o8c8fqR6ZT++Xfv0HyFHtodiVuDj1srNUTKqZSoyLN/DZp+KQ99oMe4Tbe+jwhBB3T2jsuNCB+DjmPnFx3Xy0eiLwBFnvL0qRD1RLXq07Fd30Jtxws0+qWblLly5dVYPtqNFGRESkHFWHyu2q/X6Xrt3dLsnbu08fca0c7xX36edeepQn6NLZceMWSp9q2Mi1fVlnjLzoIocLopatWru8/+sKI869AHPmvYLrrr/JI0JM7VcnPj4FL8ya67Pcb6JPn/6qCxVKjWvXvoMc1R76HI+/9no5ss+ECTfJM9/hs2YzAz+0YH+mf97I7+ujx3PnCDn2oMCSaC0q3ICHcz5Bgc1+e8KqWFMLYU0rkKP6AV3yB5tfgafaXO/+gkgDnEhOxqnTp+SoDL14o1FzC8qH9VfM5kIcOngAhebK712TyYg2bdo5bRRDNc0PiN8vKKj8fg4Xv0ei5GpgV0VSUk4rWQmWChHa9JmNF5YTFW9x1ytQWyig7MiRw8jOyqq0RA0ymdC6TRtxjTwTTEWPffzoUaSlp1aKw6Vr2LJlS5ebALkLxVtQidfdu3Zg9+7dOCXOqVOao+I3tGiLjY1Tepx37txFeZ/EJyT4LOe7KlSc6cjhQygQX8uhzx55Exo38XwuOm1bpaamKNfMUqFomUkslGixR1kqvn6P+kzgW7xaivwSOfAj7uolxH24Xsl59waLzBvwaPanyLU576tuyzDDctr7Pef9DXrL39V0NKa1FVaDrm5uBgzDqEPCTqJJvdULCwtQKiPmKUWMIsNp0RcWGgZ9HQk6Ux2fCHyeWPC1fM3/kuBv71lmuYd4d0sI/zNvwn3ZH8BsUy/7aMsugkVr1YA8yG1NRmFmu1tZ5BmGYTyAT/bgj/tZBD15Saiu/Avnel/cidEhvfB57ANKHXtVgnwWEuGXfJC8FHfseEnJmWcYhmFqh08U5aSf1cUY3UaHNy82wODD7ZAhQe3wfexjqil0OhNbrj+lrsXduxawyDMMw9QSnwj8qXz/seCv7aLDe5caapUKVxOodn3foNb4UljycXoHQTG04jDUbyueghO/P70aD+5+Q2k7yzAMw9QM3wi8n2wrX9FBh1nnGpSc97piSFAHvBtzJxro7VQv0+mgD/fBnoEG+PrUCtyz61XkW8xyhmEYhnEHn0idPwSGn9dSj5dGGhDhB2nHQ4M6SpGv3gNZF+l/edF1xQ8pq5We8gUW19IMGYZhmLP4ROCzi+rORU+e+H6NdPhsrN4vxL2cgUHtsDDuUYRU2ZPXhdawzG2A8mv6RozZ9IzSW55hGIZxHZ8IfIbzFHCvMayZDovGGRDkh/Fr7Y2NsCbheUTpKlT1ov2DutxD8EM25+7H6I1PI7e0fhUBYhiGqQ0+UZKcOjK+Lmilw6eXG+DPwemNDbH4If5xNDfImuQUZ9dAvUpYfYP8P5tzD2DCtheRXVr/CgExDMPUBJ8IfH4dCPxQYbm/dpEB4RrweHc2NsFHMfeijTFJGeuigsoi6plKrMragZu3z0FasXqjE4ZhGMZXAl/i2z34nkIn379UjwQNGcJdTE3xWcy/0IIseZ0OOn8KGPAj/srcLiz5WUgtzpYzDMMwjD18IvAFPkxnbhkD/DDOiPhQ7VnArY0N8GP8E4jQh5S56X2drK8R1ufsxYj1jyOL3fUMwzAO8brAU/cjs4/K0LePFxbejUZNuOUdkaSPxtqEGWgYHAddNFvxjjhVlIFz1z2OtBJ21zMMw9jD6wKfVWRD6dnOeV6jd0MdFl1jQCBkmSXoI7AkbjK6Nm4Pv44QrGOOmlMwbst0JJvT5AzDMAxTjtcFPtMMWLy8Bd8lUYcPlT33wHFpU3T9V/EPoX+zrnKGsceW3IPKnvy+/GQ5wzAMwxBeF/icIsDqRYFvGgV8PlaPJlGBt1/d0BCDj5s9hF6NOsoZxh7b8g5j/NYZSC5KlzMMwzCM1wU+Vwi8tyz4uFBg+QSjEPnADUajcrbft38KjcJlnjxjlyPmFAxc+xBOFWXKGYZhmPqN1wU+vbAs0M7TNI8G1txiVEQ+0KGo+nV9F6BXVFs5w9ijwGLGsHWP4kDBSTnDMAxTf/G6wHujDn3bWGDhVQbE1wNxLydUH4yFPZ7GiNjucoaxR0ZJLq7cMk1x2zMMw9RnvC7wWR7u9kl77tTPvVVM/csRjzaG46Ouj+OKBkPkDGOP4+ZU3LxttlLelmEYpr7idYGnKHpPERsCfHG5AV0T628BmEhjKN7s/CDubXopjDpOoXME7clfs2U69hYch02pZs8wDFO/8LrA53moih0Vr/ntBiM6J9RfcS/HJIR9ertb8EPPZxFuEKsexi7krh/yz6PYnX9czjAMw9QfvO+i90CrWLLcf7/RiOZRcoJRGBjTCSv7z8eg6E5yhqmK1WbFqA1T8E/2HjnDMAxTP/C6wJst8qSGJIYBX19pQOsYOcFUonlIAyzsORXzO9zNLnsH5FnMuHHbi/gzc5ucYRiGCXy8LvAltRB4stzfv9SglKFlHBOsN+HmxiOxZdBbGN9wBIJ0RvkdphyqWX/7jvlYmr5ezjAMwwQ2Xhf40homwYcKjSJxH9yUxd1VGgbH4o1O/8I3PZ/CgOiOyl49cxbak79jx0tYmbmDA+8Yhgl4dOkZOV690132tQVrkt37E0FCl5Zca0SPJDnB1IiteQdx/dZZSnU3FrTKLOo1DUNiOssRwzBM4OEDC16euEiYCfjmKgO6s7jXmu4RrbFx4BtYNeAljIzvBZOeXfflXLPleXyXslqOGIZhAg+vW/AXfmHBxlOu/QlKhfvoMgPObclueU9jFRb8zrwj+DH1b3x+8nec5MYsCNEHYXb7OzCh0XlyhmEYJnDwusCf/7kFW047/xO05/7aKAPGtmdx9za5lkL8mLIGi9PWYVXWDuSUFsjv1D8iDaF4UYj8+IbD5QzDMExg4HWBH/GpBdtT1f+ESQ+8dYleiLvXdwyYKqQVZ2ORsOo/OfErjppTkSvEnqz9+gSlF77T5SFcmjAQBh2/BxmGCQy8LvBDPrZgT7rjP6EXBvt7l+oxph3fWP2BpWnr8dKRhdiUewAWm1XO1g9e7Xgfrmd3PcMwAUKdCrxRaPr8kXpc10UPdsz7D2TB55UWIrkoDcvTN2Nhykrsyj+GYquH6g77KXphvb/Q9hbc2fQSOcMwDKNdvC7wAz+0YH9m9T9BbvkXz9fjpm5sufs7VO6VcshJ5LfkHcSO3MNYlbVTWQAEGiadEU+3uR73NxsjZxiGYbSJ1wW+/wcWHMyq/CcMwlyfPkKPO3uxuGuZY+YUbMjZj515R5WubfsLTiiin28xa9q9T3vyT7a6Fg+2uBw69i0xDKNRvC7w/YTAH6og8Dpxv5x/gR43suUekBRZS3G08DR25B/G6qxd2FeQLMYpSuR+gaUIxbYSTYg/Cfsjza/EpNbjuMY/wzCaxOsC3/f9UhzOLjsnW2gGWe69ec+9PlH2BrMJ8S9RUvIOFp7E2uxdWJe9D3vzk3HEfBqltlp2JfISi3o9iyExXeWIYRhGO3hd4C/43ILNp21KQN1D/fSYNFivRM4zDJXPtdpsiriT+JutxeJrsbD0xWEtQkpRlhD/UzhuTsepogykl+QoTWMoHsAsvl9itaBY/G6J+F1vpfZ92X0KLozvI0cMwzDawesCfyTbhu/32tAyChjTXljuLO5MLaGFAS0ICsVCoFAIfdl5kTgvRr74SuJf/v0iW4myADBbSsRioBQlykGLglIlK6AUYpEgzs3iZ+lxzWKOggpp4dAjsjUebD4W4YYQ+ZcZhmG0g9cFnmEYhmEY38ORbgzDMAwTgLDAMwzDMEwAwgLPMAzDMAEICzzDMAzDBCAs8AzDMAwTgLDAMwzDMEwAwgLPMAzDMAEICzzDMAzDBCAs8AzDMAwTgLDAMwzDMEwAwgLPMAzDMAEICzzDMAzDBCAs8AzDMAwTgLDAMwzDMEwAwgLPMAzDMAEICzzDMAzDBCAs8AzDMAwTgLDAMwzDMEwAwgLPMAzDMAEICzzDMAzDBCAs8AzDMAwTgLDAMwzDMEwAwgLPMAzDMAEH8H/oM+GJkFRqdgAAAABJRU5ErkJggg==;" vertex="1" parent="GO54IWE0fFMWwl_vU8sF-10">
          <mxGeometry x="292" y="24.360000000000056" width="154" height="70.28" as="geometry" />
        </mxCell>
        <mxCell id="GO54IWE0fFMWwl_vU8sF-2" value="" style="shape=image;html=1;verticalAlign=top;verticalLabelPosition=bottom;labelBackgroundColor=#ffffff;imageAspect=0;aspect=fixed;image=https://cdn4.iconfinder.com/data/icons/scripting-and-programming-languages/512/660277-Python_logo-128.png" vertex="1" parent="GO54IWE0fFMWwl_vU8sF-10">
          <mxGeometry x="145" y="7.75" width="108" height="108" as="geometry" />
        </mxCell>
        <mxCell id="GO54IWE0fFMWwl_vU8sF-35" value="" style="edgeStyle=orthogonalEdgeStyle;rounded=0;orthogonalLoop=1;jettySize=auto;html=1;" edge="1" parent="GO54IWE0fFMWwl_vU8sF-13" source="GO54IWE0fFMWwl_vU8sF-4" target="GO54IWE0fFMWwl_vU8sF-24">
          <mxGeometry relative="1" as="geometry" />
        </mxCell>
        <mxCell id="GO54IWE0fFMWwl_vU8sF-36" value="" style="edgeStyle=orthogonalEdgeStyle;rounded=0;orthogonalLoop=1;jettySize=auto;html=1;" edge="1" parent="GO54IWE0fFMWwl_vU8sF-13" source="GO54IWE0fFMWwl_vU8sF-4" target="GO54IWE0fFMWwl_vU8sF-24">
          <mxGeometry relative="1" as="geometry" />
        </mxCell>
        <mxCell id="GO54IWE0fFMWwl_vU8sF-38" value="" style="edgeStyle=orthogonalEdgeStyle;rounded=0;orthogonalLoop=1;jettySize=auto;html=1;" edge="1" parent="GO54IWE0fFMWwl_vU8sF-13" source="GO54IWE0fFMWwl_vU8sF-4" target="GO54IWE0fFMWwl_vU8sF-24">
          <mxGeometry relative="1" as="geometry" />
        </mxCell>
        <mxCell id="GO54IWE0fFMWwl_vU8sF-39" style="edgeStyle=orthogonalEdgeStyle;rounded=0;orthogonalLoop=1;jettySize=auto;html=1;" edge="1" parent="GO54IWE0fFMWwl_vU8sF-13" source="GO54IWE0fFMWwl_vU8sF-4" target="GO54IWE0fFMWwl_vU8sF-25">
          <mxGeometry relative="1" as="geometry" />
        </mxCell>
        <mxCell id="GO54IWE0fFMWwl_vU8sF-4" value="" style="shape=image;html=1;verticalAlign=top;verticalLabelPosition=bottom;labelBackgroundColor=#ffffff;imageAspect=0;aspect=fixed;image=https://cdn1.iconfinder.com/data/icons/business-and-finance-20/200/vector_65_02-128.png" vertex="1" parent="GO54IWE0fFMWwl_vU8sF-13">
          <mxGeometry x="222" y="710" width="128" height="128" as="geometry" />
        </mxCell>
        <mxCell id="GO54IWE0fFMWwl_vU8sF-14" value="&lt;font style=&quot;font-size: 20px;&quot;&gt;Customers&lt;/font&gt;" style="text;html=1;align=center;verticalAlign=middle;whiteSpace=wrap;rounded=0;" vertex="1" parent="GO54IWE0fFMWwl_vU8sF-13">
          <mxGeometry x="220" y="800" width="130" height="80" as="geometry" />
        </mxCell>
        <mxCell id="GO54IWE0fFMWwl_vU8sF-15" value="&lt;font style=&quot;font-size: 20px;&quot;&gt;Intern Team&lt;/font&gt;" style="text;html=1;align=center;verticalAlign=middle;whiteSpace=wrap;rounded=0;" vertex="1" parent="GO54IWE0fFMWwl_vU8sF-13">
          <mxGeometry x="210" y="80" width="130" height="80" as="geometry" />
        </mxCell>
        <mxCell id="GO54IWE0fFMWwl_vU8sF-32" value="" style="edgeStyle=orthogonalEdgeStyle;rounded=0;orthogonalLoop=1;jettySize=auto;html=1;" edge="1" parent="GO54IWE0fFMWwl_vU8sF-13" source="GO54IWE0fFMWwl_vU8sF-20" target="GO54IWE0fFMWwl_vU8sF-24">
          <mxGeometry relative="1" as="geometry" />
        </mxCell>
        <mxCell id="GO54IWE0fFMWwl_vU8sF-33" value="" style="edgeStyle=orthogonalEdgeStyle;rounded=0;orthogonalLoop=1;jettySize=auto;html=1;" edge="1" parent="GO54IWE0fFMWwl_vU8sF-13" source="GO54IWE0fFMWwl_vU8sF-20" target="GO54IWE0fFMWwl_vU8sF-24">
          <mxGeometry relative="1" as="geometry" />
        </mxCell>
        <mxCell id="GO54IWE0fFMWwl_vU8sF-20" value="" style="swimlane;startSize=0;" vertex="1" parent="GO54IWE0fFMWwl_vU8sF-13">
          <mxGeometry x="36" y="350" width="480" height="140" as="geometry" />
        </mxCell>
        <mxCell id="GO54IWE0fFMWwl_vU8sF-41" value="" style="edgeStyle=orthogonalEdgeStyle;rounded=0;orthogonalLoop=1;jettySize=auto;html=1;" edge="1" parent="GO54IWE0fFMWwl_vU8sF-20" source="GO54IWE0fFMWwl_vU8sF-6" target="GO54IWE0fFMWwl_vU8sF-21">
          <mxGeometry relative="1" as="geometry" />
        </mxCell>
        <mxCell id="GO54IWE0fFMWwl_vU8sF-6" value="&lt;font style=&quot;font-size: 15px;&quot;&gt;Sourse layer&lt;/font&gt;" style="image;aspect=fixed;html=1;points=[];align=center;fontSize=12;image=img/lib/azure2/databases/Azure_Database_PostgreSQL_Server.svg;" vertex="1" parent="GO54IWE0fFMWwl_vU8sF-20">
          <mxGeometry x="40" y="19.999999999999957" width="48" height="64" as="geometry" />
        </mxCell>
        <mxCell id="GO54IWE0fFMWwl_vU8sF-42" value="" style="edgeStyle=orthogonalEdgeStyle;rounded=0;orthogonalLoop=1;jettySize=auto;html=1;" edge="1" parent="GO54IWE0fFMWwl_vU8sF-20" source="GO54IWE0fFMWwl_vU8sF-21" target="GO54IWE0fFMWwl_vU8sF-22">
          <mxGeometry relative="1" as="geometry" />
        </mxCell>
        <mxCell id="GO54IWE0fFMWwl_vU8sF-21" value="&lt;font style=&quot;font-size: 15px;&quot;&gt;STG layer&lt;/font&gt;" style="image;aspect=fixed;html=1;points=[];align=center;fontSize=12;image=img/lib/azure2/databases/Azure_Database_PostgreSQL_Server.svg;" vertex="1" parent="GO54IWE0fFMWwl_vU8sF-20">
          <mxGeometry x="160" y="19.999999999999957" width="48" height="64" as="geometry" />
        </mxCell>
        <mxCell id="GO54IWE0fFMWwl_vU8sF-43" value="" style="edgeStyle=orthogonalEdgeStyle;rounded=0;orthogonalLoop=1;jettySize=auto;html=1;" edge="1" parent="GO54IWE0fFMWwl_vU8sF-20" source="GO54IWE0fFMWwl_vU8sF-22" target="GO54IWE0fFMWwl_vU8sF-23">
          <mxGeometry relative="1" as="geometry" />
        </mxCell>
        <mxCell id="GO54IWE0fFMWwl_vU8sF-22" value="&lt;font style=&quot;font-size: 15px;&quot;&gt;DDH layer&lt;/font&gt;" style="image;aspect=fixed;html=1;points=[];align=center;fontSize=12;image=img/lib/azure2/databases/Azure_Database_PostgreSQL_Server.svg;" vertex="1" parent="GO54IWE0fFMWwl_vU8sF-20">
          <mxGeometry x="280" y="19.999999999999957" width="48" height="64" as="geometry" />
        </mxCell>
        <mxCell id="GO54IWE0fFMWwl_vU8sF-23" value="&lt;font style=&quot;font-size: 15px;&quot;&gt;DM layer&lt;/font&gt;" style="image;aspect=fixed;html=1;points=[];align=center;fontSize=12;image=img/lib/azure2/databases/Azure_Database_PostgreSQL_Server.svg;" vertex="1" parent="GO54IWE0fFMWwl_vU8sF-20">
          <mxGeometry x="400" y="19.999999999999957" width="48" height="64" as="geometry" />
        </mxCell>
        <mxCell id="GO54IWE0fFMWwl_vU8sF-28" value="" style="swimlane;startSize=0;" vertex="1" parent="GO54IWE0fFMWwl_vU8sF-13">
          <mxGeometry x="36" y="510" width="480" height="180" as="geometry" />
        </mxCell>
        <mxCell id="GO54IWE0fFMWwl_vU8sF-12" value="" style="shape=image;verticalLabelPosition=bottom;labelBackgroundColor=default;verticalAlign=top;aspect=fixed;imageAspect=0;image=data:image/png,iVBORw0KGgoAAAANSUhEUgAAAigAAAB+CAYAAAAORepGAAAAAXNSR0IArs4c6QAAAARnQU1BAACxjwv8YQUAAAAJcEhZcwAAHYcAAB2HAY/l8WUAADLLSURBVHhe7Z0HgBXV9f+/M/P67rL0DiKKFEFj1GDs2DWWqFGT6O+f2JLYIraIFQs2rFETjZpYEmPEromKvaBiBSki0pGOsLDttSn/c+4bFOX1fW933u756LBv7ps35c69535vO1dzCAiCIAiCIHgI3f0rCIIgCILgGUSgCIIgCILgOUSgCIIgCILgOUSgCIIgCILgOUSgCIIgCILgOUSgCIIgCILgOUSgCIIgCILgOUSgCIIgCILgOUSgCIIgCILgOUSgCIIgCILgOUSgCIIgCILgOUSgCIIgCILgOUSgCIIgCILgOUSgCIIgCILgOUSgCIIgCILgOUSgCIIgCILgOUSgCIIgCILgOUSgCIIgCILgOUSgCIIgCILgOUSgCIIgCILgOUSgCIIgCILgOUSgCIIgCILgOUSgCIIgCILgOTSHcD93LOixY00JRDc0w7EdBGtCiNSGoOmi2QRBEAShremQAiVWH8Ws/83G8pkrYcZNEisUEYaGHoO7YcTPtkfXAV2gaZp7tCAIgiAIrU2HEygb12zAG7e+jWQsmVaEaLaGHY4ahe32G0I7bqAgCIIgCK1Kh+rPiG6M4t273lOtJplaSBzdweyXZ2PNvDVuiCAIgiAIrU2HESi2bWP+ewvRTCIlF2bCwuwXv4Bt2W6IIAiCIAitSYcRKMmoiVWzV0HT8+i3oUM2rNqIumUb3ABBEARBEFqTDiNQrISJhrUN7l5urISFprpGd08QBEEQhNak44xBceh/K//xwGrssOXuCIIgCILQqnSoQbIyc1gQBEEQKoMOJVAEQRAEQagMRKAIgiAIguA5KkKgrFvXhNde/RL33/c+7rlnCp59+nPMn7/W/VYQBEEQhPaGpz3JJpMW3n5rHh755yfYsKH5W+dqtu0gEvFj3323xemn7Q6f31Dh2Whe34yXr58My8zTtwldavRJu2LgzgPdAEEQBEEQWgvPtqBYloMXXpiFO/78DurrY9B1XQkU3gxDRyxm4qWXvsRV419CtDnu/koQBEEQhPaAZwXKl3NWYtKk6fD50t8iCxVd1zBj1ko8+9ws1aqSDUdm8AiCIAhCxeBJgcJiY/LkuWhuTrghmWGR8tJLc7B+fbMbkgWZZywIgiAIFYEnBUpTUwJzvlytxEc+8PiUFSs2unvpUWfqWAs3C4IgCELF4kmBkkyaiEaT7l5uWHdszGMRQGlBEQRBEITKwJMChQVHoZOLco1BUUgLiiAIgiBUBJ4UKGVDWlAEQRAEoSLoWAJFWlAEQRAEoSLwpKM29hz7xz8+pQbL5oNl2bjwwv2wzz7buiFb0lzHjtpegZXMc4lireM5anNME9hYB4fiU+veA5resfSrIAhCW2LOnI7kB+8CZbS9SZ8fwdpaaJ27kp3vCaNXb2jV1dAiVe4RrY9tWXAWLYD5xUzoXbvBt/NoaOFwBxIo4kk2M5QEElPeRPzhB2DXrVf7WiiM4C9+ieDRJ0jXmCAIQisQf/5pRO+7C5ovt3f0YuDSfpNHdtqjTYPDTlANgwRBBHrvPvBtvwOMQ4+Ev1t3gMLLjb18GaLXXQ5z5YrUDfIWCCJ44m87UBcPvxMpaLeEEkPywymI3jER1jdrebSxCrObmxB98G+IP/24e6AgCIJQVti1hiqrqGguw6ZaxbkcVFvqs8aCwDThNNTDnDsHsaf+g+hpv0LDOaeh+bknYW+oS91bGXCam9F0w3gkSaQo+L7oHh0zgdjf7+lgY1CELbCjUcQf+yc3Q1Ha4JyRQi0r4PMj/uS/Ya9f54YKgiAI7RUWMNya4hg+WCuWIfmPe9F02QVIvPUa+/9wjyod5uIFsJcvTQmnzaDSR7XeiEDp6DRspIT4dUq5pkGLx1RCFQRBEDoOXEl1aLOWf43m265H9OH7qEKbh8f2AogvWgDNzDwu1JMCRdXeMxSYQmnhAbGOxX2R6bFsBxp3+wiCIAgdik1lsWb4kHj+acQmXgM7lodT1DwJaLoaCZMJaUERBEEQhErAceh/2njWS6GbmYQTj6txH06UtngsNfbEpu/c82bFMJD87BPE7r61LN096Sj5LJ4k1bjn1ZtYsDEJnjDTM2JgZI2G2kjAPSI3vPAfz+JpbIy7IdmRacbFY61YjoazT6WEkL6VhJNH9TUT4dthJzdEEARBKAfx/z6D6N/uVOP/0qH16o2am+/mT6mAvHGLeRYiLC6iUTiNDXDq1sNaswrW4kUwZ06DTZ+5tSQrdI7wqWcgcMQxbkDxJF58HtF77gB8W16Ty57StaDQyT5bG8elH9bhyo/q8LcvGvD3LxswcdoGXPhxA/49v1GJF0EQBEEQikOrroFWU+jWKbV1qoXerTv0/gNgDBsB30/3RPDIYxE+41xU3XAHwmddAK1n79RszkxoGuJP/Qf2siVuQPkomUB5c1kzbphRj9l1CUQtUmkUxptJ/yxvSuLf85pwz+x6ESmCIAiC4BV4jEkgAKNHTwQPOgxV46+Hvd0IKsAzixS7bh0Sk/+nZn+WDa1EAmV11MLdc6NojH9/quomOIxlyavLYnh2cWlHAQuCIAiCUAKorDb69keniy6D0auP6hlJh6PpiE99D+aa1W5IeWixQOEGkWcXNaM5YUJPI042h7XWCyRQ7AwPLQiCIAhC22L07IXgiaeQQkgvEVSjw+pVsL/60g0pDy0WKNxlM2lBU05xwvARdQkb09a3zghgQRAEQRAKx7/3GOh9+mVsReECndfOKSctFihR04ZZQIsIH7q2uYz9VoIgCIIgtBhjxEj305Zo7MNk7Rp3rzy0WKAU01nTZh080rUkCIIgCHlhDByUsZuHYX8q5aTFAkUQhPaFE4sp/whOU5MbUjkoh1T1G9XCZ2WdYbAJqvSwXwl2euXEoqm4y7WxsyzTLLrCxL9V50h37nQbH8u+L7LMymg1bDt1/x7dpBL7fXhVex44mwnNn95fS6losaO2uriFn09eg2p/flqHH/WskZ1w6AB68AyUzVHbdZNhsfe4fKAbFUdtnF87hqM2a/kyWF/OBpoa4fTuA//2O0Cvqna/9ThUENs8YI0KZr26Gnrf/llrPRmhQizx3ltIvvsWnW8ltJpaaLuMRuTwn0MLhtyDPAqlU2vBPMRffkH95ef3DdsegUOOgDGgtHnYoTRifb0E1sL5sFesgL1hfcrxlW0p+5YTw6d8U+g9ewFbbY3ANtulPmcqCKhQt9etRXzBfGiL6JprVpMAa6D3TgVqTuichg4tHIbWuQuMPv2gD94WRv+toFFaaQ2c+npYSxchSfGFlSvgNBcofPOK1NKg13aBb+efwDdyx+LyUAvJx1Fbp3sezpxWSkz9s0/CeeT+9MKN0qV/3wMQOW+cG1A4WR210X8iUDJBNzr6/5FA2UkESnsWKPx8iVf+h/hjjwAbN1Ces9VqnsbQ4QifMTbVxOlhnMZGRO+/G+ZnH5Hhj1KNJwjfqJ0QPv0saN26u0flAT137NGHEHv2CWhc8PEofYobXoo99KOd4b/0GujBoHuw90jOnqHWCbE2bKBbd403pWlfrz4IXDUR/r59U2HFQvHAq3onXnsJySlvw15FBW0yoaYxajrHlXtcPtDtaXQ8G2CdxUptZxgkiP1HHAM/iQe4tVKu0SeoULdefBbW59PgcPqkd8MrvTr8iHleMxUffEFl8pXPC53ixf/TPRE4+HDluKvkBR5fa0MdEq9SfL39uvJWigTFl8dRMeQPIHj08Qj96jetLlK8JlCa7roF5uuT015PI0Hu/8NYhA89wg0pnFwCpfUlYlvRIhkmtFcSn32M5IN/U8aUk4ha9puMq/nFLGUoCq7ttSLcpdB8w3gkqABgoUKll1pnI/HBu2i6ZGxBK48mFy1E/JnHldHZZIxUwUbxEZv+Kaz33lJhXoTjIfbw/bCoAFfvj+9b3bsBc/UqJP5yi3tkkZB4S07+L5ovOluJOHvZUrWGCQ8SZDFLF1XXzXuj4zleNbo/FoE2F+TvvonY5Reg+c6bVZrjLipe8yROYbzUPR+jBCP9Rv22gGum4oOvaaT26d7t5V8j9vg/0XjBmYi/9IJ6xpJB5zI//wwNF56J6KMPplZD5+4TvrbHNxW/lgWThHqM8lGHhtKbRXYwI7VdEMgyiLYU0FsRhI6L/T+qncZiKSO+GWzIrblzEJ/+mRviPZLvv4vkzGl062nunWqs8Vdfzk+XOzasaR8pw5wWOn9iytuqC8iL2KtWwp45XRXaW0BxYS+Yp8amFAMLvqabJ6Dpb3fBXL8uJUjKAL8z20wiSUKl4Xf/h4Yzf4s4CRNupUn7XCWA11yxSdRxCxw/Iwu9FkPxHHvi32i+5lI469anBFEFYlFat1990d3rmCTp+Z01K1X+3wISof5dRsPoN8ANKA8dRqComgptBSGtLu0ahwpmc+UKd29LeGChtmq5u+cxuJY394tUjS8tGpxZVGhToZcL27IRa6RaezpDRHA2UINm8zhXW+A01me8d8bm2nsxJBKI3jIBJtWk+ew/FIKlh85P1+AxLtwilrpeea/J1+ArmFPfRfOEK4oWcptIvvA04v95RNnbMt962UnwOJ8OirVkEZof+Tt9SN+ypodCCBz0s7RdM6WkwwgU3aejc99adO5Xi26DuqmNP9f0qIY/7Pb3UZ5SGcsVJoXqGaGy4HEA3C2StoawCc+uHUX3laNFw+E+/zwSsW4YCFZXZTyWCzEef8EzQryI00CFeUahRnAhXGArBI//iN1/N5KffpQ9fbQbNJizPkfsrltSs1mKwJwxjQq1+929yidQXeN+6kAkE0hOfQ/Nl50PNJJAS5f2yU6Ejj9RLTZYbtqNQLFzFCTh2jD2P28MDrhgP4w5dx+18eeDLt4fh111KA646ADs/MudMGTvbdF1qy4IRoIdxDB1dNrxO8730SidG7Vd3J302M1UqyeR4kWstauhGVlMGQkwNag0X8gAJ2ZNh/naS2QhO0wdTqWDxFuvw6QCquDamW0j+uC9Hhb0haH7A/AfeKi7107hd8wtZom4momW/PgDNN96PZp5sDmPaUtT/nFIcMyB8B1xbCqgzFR87uM41smI+P25+4a5P1RtFPFqo8+6z4dA0I8u/Wox+KeDsdMxP8J+Y8dgzNh90Xd4L/eXgtC+0Xv1pn+zFC7xBKwFX7k7HsKxYS9eCDtDCwm3iOrhSEEylLtYkg/cAyufspYNUDFb6sfu30Lg32x2nnw39VP3b1acVBdN/UZ3Pz/isz6HvXRJ2kLte/zwvry4cZlw9PHw7bmve9MeIpmEOZPE8+efFbQlp38Kc9onMD/7GOZH7yP5zpuIT/4vYo89gqZbbkDThWej6epLkXDFaap7cXMoXijMv8/+CJx9gZoJ1hpU/DTjAQM647BDt8f+BwxBIFDe/rD2SIeeZky1voYzfgubp0CmwaHvw/93KoK/+JUb4iEsE81/uR3JN15JXyjQe/PttDOqLr0GoNpgLuyNG9FwyvEZa8CcDnwjRqm0UO5+50JgZ3KN5/0edgaX2/wOfaN2RPWEW92Q3CQ+mYroVeNyxJsDRzfUNGZtwFbQaztTvOQ3gNZhnymrVsBcvAjgmVa5CvVN0LMgUg1jq0FqmjD7NskL01RjiKxlSymeVqs42bIA2gwzicifroSfC+g87y1+x42IvvV69vNywdejJ3yDtlWtWt6D7q+2FoEDDoExZJgb1rrkmmbM707NiCoEeiUGVcY5a39b3PNrUu+KNvpOBWV4d/wb9gkVPPYEBI/5pRtaGtqlHxTuzunWrQonnrgz9txja4TCraPm2iMiUESgMDwAtuFPf4TDzrQyFTKRCKounwDf8PJOLSyExOuT0fzniZln19A7ZKMa+s1pbkAO6Pjmu29F8s1X3YAtUQa7Ww9EzjwXxogdoLF/mGwF8xaQybUsSndrEH/iUSTe5HeYw37SfXGXQ/C4X8Oga6tCpZBr0u95DBH7y4k+fB/sb77JWiD59xqDyDlcU87P903DGb9Rs6ky4yBw2FEI/fq3Ob2TtiU82DqryCozuQRKq8LSgPKVf9fdEDzxZBj9B5b8vbUrPyiccTh+jjlmB9x6y5E44IChWcUJz7+PTX1XNVk23XYDku+97X6TImkn8NDnN+Kh6Tfh9UVPYt76GWhOdtyR20LHhaecBkbvntUAcWtF8pUXWzzTo2TEY0hO+te3NcB0OGRgfXsX0FRPtdPk++8o45gJXrk9NOEW+HYenWrF2CQW8t7oeCqA9L79ED7zPPhG76kERCZYKAfGHIjwH0gQ9eqTMuaFXpPiQauqUq0iVZdfBz1HEz1P2+Yp1vmgWmSyLIvA3/t23R2hk06he6hOtZ7w/Xtwa0tx4jX4vfn32EfN1lHprg3iht5KZcDeYvv2rcW4iw/AiSfugq7d0rhpJsNpLV6IZjJaPAq58bILkbjtRsQe/xeSPPhrxnT3wBQN8Q14Z+l/8eaSp/HorNtx29Tzce2U0/HAtAn4ZMVbJFYa3SMFoZ1Dxse/y26qECPTlApLQ/KDd5Gc0vZO23gKePSOiTDXrM5aqPj69IXRN39fDYnGBugb6pCafJsGMtrBU89EgM5bEvx+BA45POs0aW7F0A48jGrVJehao+sY7F5//4OpwpdeFHF8WmvXpGaB5YNtwc4yo0wjuxzYfS8ScxE3RKgEuFWSvSY33TIBTZeeh6ZnJimHlq1JRQgU7tIZObIPrrzyEPxk9KAtB8SS0eCBQ8133ISmKy5C8tGHkJw9E6hbl1oki2B31PB/P4P7dJ8yRDwF0abMGjUbsbJhMd5Z8jzu+fRy3PTeWXjhqwexIfaN+wtBaL8YW29D27aUn9ILFC64uJsg/s+/w/yC8lcb4dRvQPz265XH3GxwwYg99011weSJzzRhZSi4GRYS/p1/4u6VBp3XPMo2TZpsl5+OKRn0DD4SKBlFGONjr7NZvv8e7Oo/S5zRd+zOXygNnDuL2YqC32s0CnP+V7Aevh+NJFTYszGPU2oNdHPDCsSXTEN8wUdIrFkAO1be5ZPzYfNhMfxxr70GYzyJkz59OnHe+g760v56iXIw1HTVOOUu2uG529xcxwdufjB//N6PmXT7Gv3cICNlYfHGL/HEnHsx7s3jMWXpf5GwvOkHQhBKAuUb/0GHqVp9RigP2d+sVSP+2UdI0U7QioA9nfIA1saLzkHs/Slp8vN3qO7gXn0QPqDEU0WVXXE/l4hchUeWxywaFkRZr1vANZWQyda6w/Z03tyUMRdaBsehSoOFbyyu+Q3wKbj7Rq38bZnqc85U6P6exyxGuSHgluvV2lDlRl9+0x5Ydc/Pser+47Dy1jFYccd+iC+azk/gHtI2sIHhjRcAPP/8MQhtcqa2iWRCLdzVcM5pSHz2kWpFyd5/WPjgJ25Z0WmLJppw37SrcfU7p2BNk0c9iwpCCeA+Z2PEKJWfMsL5KBEnkTIO0euvRJIqCQ7tpyxfDkOXN+65yIjaDfVIvP8Omi8+F3GqjPDKzTnzMv3Od9iR0Lv3cANKSIF2pDS0xTXzg2czqYGvmd69YSDx6otIUOEmtAyN0nPN7X9D9cQ7i99uvB3VV09EeOw4hE88Bf7d9oTWtbuqoPDYq80bCH6Iyne0Jae+iybK+1xZKSfa4ku23vJuSFV1GnMWuhx8ER2RvReoHLN41q1rwtlnP4lddx2IsWP3pXj7fubkVpKmay5Trr45svIVHsEjjkbolDPcPaA+XofzXjkSlpNfLVA1VdJLPHHY+dh/22OVeKl0ZBaPzOL5IebcOYhdeymsLAMfN6FaKrgmRrfA05B9w7aH3qMnEM4+liUrbCjXfwN7/jwkqfKhNTXCNnzqbPnkdc6n/h1+jMi48dAifB/5Y69Zjfr/O5p+l2aMG8H30Oneh9U031Jh0nM2/ekcOnn6PKgFA6iaeA+MgaVb98RaOB8N55+RMT4dx0KnBx4jgUfvMg+ariOh+vH7dL70NpHzkhEKIXj62ZQud2nTWSoOKJ55kDLPUMrWWtgGtOlqxlwZ4IUr6R4SLz2f8hyd5Tqc933bbIuqa28pOJ9tIuc047QChbMh/d/j+DsR2Sn7UsrlEChr1zbir3+dgnPH7oPOtd8/zl68CM03jldrqBS6EFWABEq4BQJlEwZlwgMHn4BfDD8DPt1bCbxQRKCIQElH8tlJiD50f9bBm1tA10yNReDfpDErBcKFJ5ko9Tdv6B70Lt0QGX89jEGD3cD8EYGSolCBknjzVUTvvNndywCnD36jqvAt4J2WHEojJEy0zl1gbL8DAoccAX3goFZzPpaNNhUom6D3xEKl6dGH4Lz1avZZe3Rs4OCfIfz7P6qKRaEUOc049fB1r98KO9b6M1m6dIlgbBpxYs6eoZqVzVUrCxYnpYQH0b284N94ZMbNiJltP2ZHEEqN77CjoO9/sKpV5Q0ZTR7boLw1q78t2+ifgsWJVl2N8AWXqJkqQusR2HNfGN27u3sZ4PTBLSycpkhgt91mUbkWg0WV3MQrL6KRxGHThCuQ/PRDKmTo+44OvSe9S1dUn30+Qqefneq+ywQdy76IzC9muQGlJXMpTxe26pYh8XXrLzfv8+mo/YE4SSxcgNhtN9A9radba0v1vQkN7yx9Hk/M+SuiZu6mcEGoJHhqa+TUM9TU49QgOm/DLX3cqhG5+Er4qFbM9ktoRfx++H92dEWklW/hNMI+WSjtmJ9/iubrxyP60N/gNNS7B3RsOAdx60jwqGNVHGUkmUTssYfL4h8pazOEY5vgWT5tDbtnTt5xA8x1mb0f5kPpTZaG1xY9gbeXPFdwN5EgeB09UoXwuPEIHcA+M1reZVNOfENHIHLJVfCN2knESRsRPOxI+Ef9iAx26QuqcqNa5ElcJV54Ws1SUbNBBUXg6BPg2y6L63+KO+urOaqcLjU5+0l4GlJb4jQ3IXrPn5FcsrjkLSelOJ1GUfjUnHsxc/VUN6SyUFMEc6SCTb5k2iOpYjdD4UuFsh3PvR5Um5CPXihBArcp/znr1pVB3JcWralBta5mrekJ5SUQRPis86D37F2570E3kPjkQ0TvvEW6e1zYj5D/qF+o5TAywWWENXNGyd979qIpw6Ct1iT59uswP/0opXBLjA6jJKInYSWUJ9qNMW8uR58NyxcA/JkdWWmU4BJZ19ioYChN6UF6/kx5ipNGHb1TDzZbc1O6k0M8tXQwotVQD/PSsYhP+4RO422JYi5bithNVytPtyJS2g69Tz+Er74J8d59ytLk3xpwWZP86H3EnnjUDRF4hp6WZbA9WwdrxmetLFDaGGvpYrUcdDGjg9NRLrPFImd109d4Zu4DyiNtJWGEgtCra7ImLG3el+6n9kdWD5eaDpPSoJpu5zHYtXiSxVNG6H3yuidF5h1uuUzcfC1iy5eXpXJQcuhdOfEYorfdAJPX3BKR0mb4+vZH95vuROi4X5OBofdSgV0+DA+gbQ1nZJWA3rmL2nhmTSbMRfMp35Ww/KNLedfyWCbiz0yCXSEJRNcMfLDiZaxqWuKGVAZaMARkc2ZFhZM1/yvKqBvdgPYFL/+eCdW6tvzrjNOQ2xIt2gx9Nd1XlpYNoyc9Gw8CLILE4/9CgteuyleckCBQnilJOPEaLtwc3KItSefg8/F58xYbmvoNT1vkGX9C26GT8OeVi2tuv0+5djCGjlB+UJSQdN9pm20kmJQH1SyFLecrtnn1k/8rYpeh+NC69aAclsHeULAaXFziqMrgB8XFNtH159ejZreT3IAtKYcfFMaaOweNV49T6wCUih/6QWlM1GPsK4fDtEszxoIdAA3r/mNcsvs9bkgFYNuIPfJ3xJ97wg1Ig26gatx4+HbdzQ1oP8SefxLxh+7PbIRME+HTz0bgyGPcAG9gTv8UTVdf4u5tCRviyAWXIrDXGDckf5KfT0P8xvGwcrQc8TU41atpwcNHIjBipGriVwsOZvDjkC8OCTCHBJg1fy4snsK4YT2sfKcd0335BmyF8DU3KZ8ohSB+UFIU6gclJyQck7wQY329WrKAu47bChYnnKbY54hdt47iIH3Zxek7sM0QRCbeSUK/BAs15oEn/KBkoGHs72EtWZRWorDY0zt3Q6f7/8XTcN3Q3GT1g0Lx78kWFO5fj736IimI0vpgKfcrZXX51boZ2BivoLEoVEP27bCjEiEZsZKIv0Lvw4NjMVqK/yd7qCm1meDl+hNvTM576flWgbt3pk5RRj8TOmV4Y/C27l7+cHdWYtK/YOWoGCjjUVWN4KFHoubvj6HTdbcidOLJCOx3EPyj91AL6rVkY78awWN/icjF41H9j//AuGwCAruQQOYVcXOlQzLeycULEX/hGdWiIngAykf+2s4wBgyEb8hQGNsNa7PNR2Ka01bV1ROh9xvIidm9ye/D4i25YjmcpAyWZVvjrF6ZMa5YuevdqDJQYuHkTYGyoQ72x1PhVELf9/fQyHaaeHn+Y0pRVgoOuyevqeFPqYAfQjUMe9bnMD9vfZ845UanGok+cKuMGY+NFC9IaX3yoRvS9iQXLYDFHmQziUp6FoNXyO1W+Do0vMaG9WVqCYnMOPD16oUIiRL2IMlOncoJL/se+clPEbn8WuXVWN92iBJIWaHfWCQs7VVt7yZB8CYG5fvQMSeoCnEmtFgzElQedXSsFctgR5uVPUwHh+okPDuEQEnOnA57PTe9lfZhWwcNry6ahKTl0empafBHqmDsMppSYeaMyokz/q9/wC5xq1Zbw2nMRzX+bMUdG7Dme273hG8E7ue1HroXZiKRsgppUM8ybDh07vMvAJueM/nqS2oMSCZUywnVOiMTboWvCFfyLcXYdjvUTLwbwX0PzPrO+L2aZEOSL7/ghgjClviGjaDKWSd3b0vYIhp1IlCSn3wAzc6c4/gb/067dgCBwkbytZdVDajcOEgNwislbBiTiKEhXlmDSoP7HACNZ/NkMvts8BfOR/Qvt8Fqal8ixbfHPtB53EQWnOYomm68qk27euyNdYjdcSPiX8xW6SwjgQDCp3431ipfbHq/5qKFZBUymAXKKzy+JPy7s6H36OUGtgFkG8Jnn4/gmAOVvciEZviQ+PB9NeZBENLC5UyWMRM8VsZJVk5lsxzwisXW/57P2qPBky2MbYaocqKUeE6g8Oh9blLPVDssGk5oPxAjJdYmCnUNS8cHy0hkVRDG8O0RGPWjnIPXzKlTEL3lOtjtaOl0o3cf+PfeP2tTL3QN1szpaLrhSthr1riBrQSL9g8/QHT8OCQ++Si7EaD35x8+qvDBjfQ786MPgGhmAcYpI7D/wfCxt9C2hgqV0O/Ogd63X9aM7Kwl47qYRJcgpMFuaMjZMspjrToqXB7HHvgLTBIpGStFZJ8MHiDfpYsbUDq8J1DWr3MTTIkVCkduCdQdCxBesZVd2/PGfk8MzUDICKMm0Bm9qvtjUO1QWPRfRUEG33/YUe4y+dkxp32CxvF/Qvw/j8BmPyHc3VDBcKrgGV68KFbWsUO6AWvGdDReeUFqCjyLtHJ5mzSTsFevRPzdN9F4zaUkCq9VAz9zTfvlAb+h0wpvPeFp/WqxtCyFvVr9dd8DS5KPSoEWCsF/XOYZhgxPKTWnvufuCcJ3OIl4qrU+m6dsfwB6zzZsLWxDuByO3XsXkh9PzZ7n/X6Ej/2Vso+lxnPTjJOfTFUrS2Ztwi4GMrxqmvGpZ7oBwProGlz42jGw6DkVGosP/sD/pK6vazqCRghhfxUCehi1oa7oFOyKruGeSpB0C/dGLe2HfBFUBzvTMUH4jQCq/DXKN0pFQUo49uC9avZDzkJICTWeWkaF1qCtoW81ODXgtKqGxA4/d4nfXy6CAbW8vmo5KCbt0LPEn35cLRaWaYrfD9G7doM+eIhaOVfvRUYsGG6ZUzOO0+YmNbCTnRTy5qz7Rs1Eyee8fFzk6OMQOPkPbkj+sEOq+lN/mXkcEt2b7yc/Rfji8WSHvJOuucut4dzT4VANLx1cmfCP3BFVE251Q7Ij04xTtGiaMaUVe+VyJJcuge5Fd/H0yDxbzSRBnqDCV8t0j/QcWu++qLnrAWhUCLcGXphmzMItPmMazKcnwZozk0KyXIvKjMAeeyN03iVFxVGuacaeEyixR/+B+KR/56wpFgw9bOBwEiinfSdQGhMbMe6NE1StuUuoO6qMTqgJdUaPqn7oHuqDntX9SYj0QIAECosUJT58Iej0X8kFlEfggqr5qnFqpkjez0hx+233Gf9m0+fWhK6r8eJ2J52MwMGHFzWGyYlG0XjhWbCWLc1faFChoh53U1y19Nnd+FNxv+mcecDdU/5ROyJy+YTsy6NnwJw5HY2XX6B8mqSDxU/VRZfBv9d+bohHoOduvnMiEm++lvGdaV2pUvH3/7h72RGBkqJogZJMIDrpUSSff0otxfCtXfAi/Oj0/BmdjxH+Aw9F5IyxBeXFlpBboPQhgfJQae6H0xtVSNRaayRKLB5rMutzJN94BTbZQNsy6TLZ7CBVULv1QOSK66mSNsgNK4xsAoXxlkChxNx409UwP3g3o6EsGjp34PCfk0A5yw1IETWbWW6QHvLBoJdRca0eZYBr7o1nn6J8gGTLvJ6DUrJG/4THXgz/vge4gYXBXmObzjkNVjyWI3N6B9WS1akWNXfeB61zcVN+E6+9hOa7bs0szKh2VDXxbvgGbe0GeIfkU4+h6eH71aDYdPBiZzWPPU/vM3daFoGSoliBEn/uKUQfuDvvVkgvw+kmcuUN8I0Y6YaUn1wChR0gGkOHKWFeLGqsHYsS9TcBp6mJtkbVcqISuJ5dtG2C7U7VeWRr9ynO1jK5BEpJLHChGjnbo1vffEP/lqlQTPNSw74Igr4w/Lq/dOKEaw3cVF5oxHgEY+AgVN/7CBDzeA3oh1Cyccjgxrj2VuR0aF6JNXLz3TCqqivj2ekejf4DUH3rX4sWJ3wOO8tUSm5h5Ble5fZ3UixNXbohW3HIb7F4cy7kCxd0iWcez1jYVBJciBvDRrSqOMkLMwlr9gxYc2YVvdlz58BeOA/24oWwly9TfsdYsHCFjCsoeVVKyWZEzjwP/r3L26KaXaBwgZ2jFhk2NIRoy9eY8+r+vSOZI0C3OKLKIFDonKlptEXCz0eJ1klYcGJJ2A0xElMNMFesR3z612h+aRYaHpiCumv+i3UXP4Vvxj4Oc3Erz/YoIUbf/qj+64MweJ2eNMLOyzirVsJpKH6aNwu08JXXq4I/U622zaH0yDnOt8toVF9zM/Qsawrlgo2xTYUL55G00IVYnHBN3otUV1cjmcWHD79DLT/zpOI157H5nitfKNpTbzM9KdNa4nSYy14X8YzsNt5a/01+BZyH4bLM1607wty140k4fluyMZv+FgbHjRaOIHLh5fDvfzCdpmVtHFSiup/Sk0OgaDCqs9eaAoaOgwbw7IfcD8y3UhvQMbJLFgdShp+OKyJ35MIwqMAZ6O78AIp0J2nBboxTJmuGtaYBySVrEZ+2GNG35qLpmWloePh9bPzzG9hw40tYf9mzWHfRk1g3dhLWnfsE6sa/gIb73kHzizORmLEM5kLKqCs2wLHK8BytiG/rbVB13a3wjd5dKctKaU2xA37YLVw7wzd0BCIXX0UCYDeVD4qy2OWAbkMZCRIM4d+chqo/XQmta2HrzWwB1Zrszl1UPkgPXa9HL+822/NSBVmEpE6PlW+dxwyFyQSRDcoQF+o0/tK2EOgksLRsrQ4U71qk8HFFWampodee3vyr9BWpohsrrEXZ4UGSrbRmTblQz07PETr9LDXeQ+DcT/9x/qI06ucK0fW3wb/H3srDc0tx2Ns1ly3u/ubwdbMKFKO6BwL9dnD30sMtIscO4hksRtqLbA5f7OABEfiyXFX58891oiLQIhFoA7/ff55cvA6Nj36I+nvfxsabX0Hd1S9g3SXPYN35k7D+gqdRf91kbLzrDTT+cyqanvsc0SnzUwJkyTrY65pUSwqjBehF8cwVEmvKErIVo79aoPKbOrmvPXLRFYiceT58g4cooefZVgWCWwN8I3dUs4taCq8bws8eOuUM6AMGweH3mrEQLzd0Xbo2zxwKHngoqq6ZiODPj1dO2VoKt1hGyPDovM5NuuejoOB+ByoD5UX0gYPUGJy0ooLDeAFDpSxy4yexgNF7UBZOfy69dx9oWTyPFgPnMZ4Jlvb+uath+PZUsyuxj4nOnZXITfe+2ReSf7c9STgV1uJsdO0O37bbpU9DFYDq1mF7d+6f4PvpXkW2MbQX6B1SfHCXObeecnqoGncVqi6fAJ09SOeboXIQGjpcdaunTYcWvY+xe3W5yt3/PvSDmt1/g6qRh7gBmelC4qQ6oGPG+iRMOukPu2g2XfrHPQL4/Yhq+FnVpIN+Z/M6I3NmlSwCGM74PNjLd9yJVL66qo/CGh75QHXNmCRUrFX1sDdE4UQTqfEjdHkukNSz0P2qvjn+vGljstyjRioscjgVlNWZF6KrFFgp88Jz/t33Anr3VVM7dR5UxQuxccLalLgyR0erwLfB031DJ58BX4l8F3DN1rfdMAR231tlVLuhPjWozP7u2b997FI9/6YMQygDQSKEM7HvkCMRPvl3ylkaL2dfSrjQZS+xnPfUqP5Nz0XCO7jvAQge9QuK3Kz1mTaDvVgqHzUzp6Xizs2XKt+zV90zz1NdlvnA+Zy7+JIfTAHi363mzK/aqK5KnYvEaqnR+/RV0155+uvmycjXsyfCVJs32IiXEN3wQe/XH0n2EcP5mC/qpjutB13zD39UYrgQ2E6w2Ep+8A6Uf6BS5Ycywe+UH5rtOi8L4d9tD4T/eBF8249S37cFvIq/+clHKh22KhQHKuvwdQNBaCT4/SNGIfCznyP8q/+nFgXV88xDBUHxzv6VzOmfKbujkiG/GLqfwK67ZZjFQzXk0JC90OPXf6UXl7+Knro6jgfnNmJpo+mmd74QFdSGg8P6BXHisE4IcStDFhJT30fzjeNVoikVrIwDVLjyyqjfQply/bhnkFz0jYqMUsPCpNvdv4JeVfkCJR3JNWvgfDUH9twvYC5ZBKduvfLhoUaHp3J+q6L5fdCGj0L4hJNUAVNOeBqyyQPV5n+lvB479RtJ2FJhZvGzuwcVBf1Y9wHhsFq8URuwFYxtSBgOG6X+tgbmnNlqRo+17GvlGTIw5iD4f/LTsuSRUsLrByVeeEb5srE3bqD7JUHRfyuETjoZfqoNFwrP5oo+fL8qMFQrxtbbwH/08QiM3NE9ovRYlJZ4iq4zb66Kbx6gGfrFr6D16eceUXrMmZ9TnP1HLaPPLWS8Nk3opFNb5JzMWjgP0X8/DGf+XKrEeLe1lVfGZt9N7BnZ2GNv+PuVbpZUsSRen4z4M49Tsdny7pOMcF4mIcJdcizMuCVNq6lV75y7cnnsnRL0JejCyReL7E588guwOR3Se/Hzaub7H0IC5eIBrCJSR6l+piA67fUH1I75A/RgYS5+2TY3xC3Mq7ewvMlEnE7XNahjVDc/ugdJXedh49g7Z8M5p9CH0hVyGhkY30mnIHLcr90QipA1Ddhw+bMw12cZHNgCfP27oNttx5Xl3J6C4pbTDatfVfPm/TZAtXBxv3mrZSpKn5RGVUtK0nRbHVr+7CzMeXq3zuMqVJchb62chvgd8sbXbUUj1WLonu2GjbBXrVLjZfTevVNpotj4o0qMrdZeolo2icZWGYND13S45YZuWQuEWif+TRN2tImiifIQd/OV4pp0Tm5pVWMXPAflXUdTlRoEg6np6V6x05ap7EnZ4ZYS3tRjc2LbbGsr2JZyuuF0yN3JdC9a85dvOObKhVT5S8DXvS8CfUfA32NweRVcFnhhr/rTTwJKuXIsZbjIpdfA/+Nd3QAgPm0pNt48mQqWMmQgx0HVcTuj+oTvricIgiAIQv7o4aFjULP3yajd/3eo/tGRCPQa0mbihOG1RDSe3lnCmjhPLzYGbOXupUjOW10ecUI4VLMO7zPE3RMEQRAEoVBSA0K4eZxFiReauehe2DOdxs09pcBxVD+j9oNBhckF36jvSg6dkmf16F1yL7onCIIgCEJ6UgLFYwR3GQ106kz6oeUCgs9gbL0tiYbvT8e0Fq+jf8sgyOieI/sNhxb0qM8IQRAEQagAPClQeHqb70c7l6SFgyVIgudtb4a1hqeKJsqiT2BoqD5Jxp4IgiAIQkvwpEDhbp7AoUek/Bu0FBIhVVtv4+6kSHy5Gk6iDCOlbQf+wT2gRUpw34IgCILQgfGmQCHY1bh/19FgHyYtgld/3HyArOMox2yl6D7agpAP1afu6e4IgiAIglAsnhUovLx78IhjYFRXQzl8Kwb6mTFosHJz/y02CZQFa1KDU0oJCanQHtvCP7i7GyAIgiAIQrF4V6AQ+pCh8B91XNFjUVjY8Gqvm2M3J2CurHf3SgQLoT6dUXX0TtByeMoVBEEQBCE3ni5N2cNf8OCfwTd0+6K6etiDLIuczbHWNsLewN5j3YASYAR8qP71aPh617ohgiAIgiC0BM9X99l/Sfi8P0Hv3LnglhTDtrZYx8KcX9ruHV5rInzUjgiOHlRS0SMIgiAIHZmK6I8wevdD9Q23Q/MV5uHW4enKmztoI4GTXLxWjUMpCSxO9hmqBIp07QiCIAhC6aiYUlXvOwCRy66Fn6ce59OSQsc09+2fWizMxYklkVy4jk5WgqYOEieBHfuj0+/2gh4Sp2yCIAiCUEoqqtrv22lX4Irr4e/ajfRH7jEpXQ4+3P2Uwm6Iwfp6vbvXMsIHDkfnSw+DFhZxIgiCIAilpuL6JSLbj4Tv6pvgHzLMHfKRoTXFcWAMH+nupDBXbISdaMEaP3RObi2pOvbH6HT6XtD8bbeooiAIgiC0Zypy4ERgwFaIjL8B/sOOhB4MK+HwQxwrCb262t0j6Bhz6XpoVpEChS7hG9gNtRcdiOpf7ko7Ik4EQRAEoVxU7MhOrboGodPOQuSKCTCGjgAMgzTIJqHiQO/SHVqIxIuLk7SVB1l2o18QdEqtKoDIUTui87VHIrDDAPcLQRAEQRDKhUaFeoY+kgrCspD8+APEn3sS1uwZpCk0+Pcag6oLL6MnTHUE2fUxrL/iOVgrNqj9rHCUWCRyakMI7TMUoaN/BH/nzbzRCoIgCIJQVtqHQGHoMZx4HPaiBUh8+B58u+4G//Y7uF8C5rI6rBs7iZ6YdviRXeGi4GnH/HsKMmrCCAzvg8AuAxH88VbQO4UosGIbmgRBEAShImk/AmVz2OssC5DNRIi5+Bts/OvbKSGStKDxVOOAD1pNEL7uNfD1rYXRr4v6q3epghb0ub8UBEEQBKG1aZ8CJR22AzuaIIHCn10BQyJF8+kpB3AsWDZvVREEQRAEoc3oOAJFEARBEISKQQZXCIIgCILgOUSgCIIgCILgMYD/D2+h0KhorwobAAAAAElFTkSuQmCC;" vertex="1" parent="GO54IWE0fFMWwl_vU8sF-28">
          <mxGeometry x="10" y="8" width="142" height="32.42" as="geometry" />
        </mxCell>
        <mxCell id="GO54IWE0fFMWwl_vU8sF-24" value="" style="sketch=0;outlineConnect=0;fontColor=#232F3E;gradientColor=none;fillColor=#8C4FFF;strokeColor=none;dashed=0;verticalLabelPosition=bottom;verticalAlign=top;align=center;html=1;fontSize=12;fontStyle=0;aspect=fixed;pointerEvents=1;shape=mxgraph.aws4.opensearch_dashboards;" vertex="1" parent="GO54IWE0fFMWwl_vU8sF-28">
          <mxGeometry x="140" y="71.27" width="78" height="59" as="geometry" />
        </mxCell>
        <mxCell id="GO54IWE0fFMWwl_vU8sF-25" value="" style="image;aspect=fixed;html=1;points=[];align=center;fontSize=12;image=img/lib/azure2/general/Dashboard2.svg;" vertex="1" parent="GO54IWE0fFMWwl_vU8sF-28">
          <mxGeometry x="290" y="70" width="85.38" height="60.27" as="geometry" />
        </mxCell>
        <mxCell id="GO54IWE0fFMWwl_vU8sF-34" style="edgeStyle=orthogonalEdgeStyle;rounded=0;orthogonalLoop=1;jettySize=auto;html=1;exitX=0.5;exitY=1;exitDx=0;exitDy=0;entryX=0.467;entryY=-0.04;entryDx=0;entryDy=0;entryPerimeter=0;" edge="1" parent="GO54IWE0fFMWwl_vU8sF-13" source="GO54IWE0fFMWwl_vU8sF-20" target="GO54IWE0fFMWwl_vU8sF-25">
          <mxGeometry relative="1" as="geometry" />
        </mxCell>
        <mxCell id="GO54IWE0fFMWwl_vU8sF-37" style="edgeStyle=orthogonalEdgeStyle;rounded=0;orthogonalLoop=1;jettySize=auto;html=1;exitX=0.5;exitY=1;exitDx=0;exitDy=0;" edge="1" parent="GO54IWE0fFMWwl_vU8sF-13" source="GO54IWE0fFMWwl_vU8sF-28" target="GO54IWE0fFMWwl_vU8sF-28">
          <mxGeometry relative="1" as="geometry" />
        </mxCell>
      </root>
    </mxGraphModel>
  </diagram>
</mxfile>
